<?xml version="1.0" standalone="no"?>
<!DOCTYPE svg PUBLIC "-//W3C//DTD SVG 20010904//EN"
 "http://www.w3.org/TR/2001/REC-SVG-20010904/DTD/svg10.dtd">
<svg version="1.0" xmlns="http://www.w3.org/2000/svg"
 width="1280.000000pt" height="929.000000pt" viewBox="0 0 1280.000000 929.000000"
 preserveAspectRatio="xMidYMid meet">
<g transform="translate(0.000000,929.000000) scale(0.100000,-0.100000)"
fill="#000000" stroke="none">
<path d="M4911 9271 c-13 -10 -39 -43 -56 -72 -37 -64 -70 -81 -109 -55 -36
23 -35 67 1 95 32 26 23 40 -12 17 -20 -13 -25 -24 -25 -61 0 -35 5 -47 26
-64 51 -40 96 -21 140 58 16 30 37 54 54 61 83 34 138 -59 68 -114 -39 -30
-30 -48 10 -19 22 16 28 29 30 71 3 47 1 52 -31 76 -40 31 -63 32 -96 7z"/>
<path d="M5580 9269 c-48 -14 -86 -53 -121 -122 -40 -78 -61 -97 -107 -97 -44
0 -72 23 -72 61 0 32 9 43 48 63 27 14 32 22 32 51 0 30 -3 35 -24 35 -30 0
-87 -39 -103 -70 -7 -14 -13 -49 -13 -79 0 -96 53 -147 151 -145 63 1 95 26
151 121 58 98 102 123 161 92 29 -16 37 -28 37 -62 0 -40 -15 -63 -50 -75 -27
-10 -30 -15 -30 -51 0 -47 6 -49 67 -22 54 25 73 62 73 143 0 45 -6 72 -20 95
-33 55 -112 81 -180 62z"/>
<path d="M6810 9117 c0 -74 -3 -142 -6 -151 -5 -13 -24 -16 -109 -16 -85 0
-104 3 -109 16 -3 9 -6 69 -6 135 l0 119 -70 0 -69 0 -3 -132 -3 -133 -90 0
-90 0 -3 138 -3 137 -69 0 -70 0 2 -232 3 -233 415 0 415 0 3 226 c2 179 0
229 -11 237 -7 6 -39 14 -70 18 l-57 7 0 -136z"/>
<path d="M4753 9030 c-31 -13 -43 -41 -43 -104 l0 -56 165 0 c99 0 165 4 165
10 0 5 -35 10 -77 12 l-78 3 -3 41 c-4 54 17 72 91 76 31 2 57 7 57 12 0 15
-112 6 -138 -10 -21 -14 -25 -13 -49 6 -27 21 -54 24 -90 10z m93 -32 c18 -14
27 -77 13 -94 -7 -9 -32 -14 -70 -14 -54 0 -59 2 -65 25 -18 74 63 130 122 83z"/>
<path d="M1910 8963 c-23 -12 -46 -37 -66 -73 -47 -81 -67 -100 -109 -100 -81
0 -106 98 -34 136 35 18 40 49 7 39 -91 -26 -91 -178 0 -206 59 -17 104 6 139
72 43 82 74 109 123 109 94 0 124 -112 40 -155 -16 -8 -30 -22 -30 -31 0 -23
40 -8 74 28 25 28 28 36 24 85 -4 40 -11 61 -29 78 -33 33 -94 41 -139 18z"/>
<path d="M5554 8866 c-36 -16 -70 -58 -107 -132 -33 -64 -50 -79 -99 -79 -86
0 -95 104 -10 129 17 6 22 15 22 42 0 42 -16 50 -64 30 -50 -21 -76 -68 -76
-136 0 -96 54 -150 148 -150 53 0 100 34 138 100 55 95 86 125 132 125 52 0
82 -26 82 -72 0 -36 -36 -83 -65 -83 -11 0 -15 -11 -15 -40 0 -34 3 -40 20
-40 34 0 80 29 100 63 28 45 28 147 0 192 -37 59 -132 83 -206 51z"/>
<path d="M5025 8788 c-2 -7 -6 -35 -7 -63 l-3 -50 -64 -3 c-75 -4 -80 1 -83
73 -1 46 -2 47 -5 10 -7 -84 -8 -85 -68 -85 -62 0 -67 5 -76 75 -6 48 -6 46
-8 -22 l-1 -73 165 0 165 0 0 75 c0 71 -5 91 -15 63z"/>
<path d="M1857 8625 c-109 -29 -203 -57 -209 -63 -5 -5 -8 -18 -6 -28 2 -16
37 -28 188 -66 253 -65 240 -62 240 -44 0 10 -16 19 -42 26 -100 26 -98 24
-98 97 0 60 7 66 89 84 40 8 51 15 51 30 0 10 -3 19 -7 18 -5 -1 -97 -25 -206
-54z m41 -37 c18 -18 15 -87 -3 -95 -17 -6 -174 24 -196 38 -8 4 -10 11 -7 14
5 5 159 49 189 54 3 1 10 -4 17 -11z"/>
<path d="M6806 8655 c-3 -9 -6 -73 -6 -141 l0 -124 -345 0 -345 0 0 -95 0 -95
418 2 417 3 3 219 c1 121 -1 223 -5 227 -5 4 -36 10 -69 14 -52 6 -62 4 -68
-10z"/>
<path d="M4739 8561 c-19 -15 -24 -30 -27 -85 l-4 -66 166 0 c99 0 166 4 166
10 0 5 -33 10 -72 12 l-73 3 -3 35 c-1 19 -7 47 -13 61 -19 48 -97 65 -140 30z
m95 -11 c17 -6 29 -22 37 -49 17 -58 3 -71 -77 -71 -70 0 -82 12 -69 70 11 50
55 71 109 50z"/>
<path d="M5710 8402 c0 -55 -4 -92 -12 -100 -7 -7 -41 -12 -83 -12 -42 0 -76
5 -83 12 -7 7 -12 43 -12 90 l0 78 -35 0 -34 0 -3 -87 -3 -88 -70 0 -70 0 -5
90 -5 90 -35 0 -35 0 -3 -110 c-2 -60 0 -120 3 -132 l5 -23 269 0 c236 0 270
2 275 16 3 9 6 66 6 128 0 119 -6 136 -47 136 -22 0 -23 -3 -23 -88z"/>
<path d="M4739 8321 c-19 -15 -24 -30 -27 -85 l-4 -66 166 0 c99 0 166 4 166
10 0 5 -33 10 -72 12 l-73 3 -3 35 c-1 19 -7 47 -13 61 -19 48 -97 65 -140 30z
m95 -11 c17 -6 29 -22 37 -49 17 -58 3 -71 -77 -71 -70 0 -82 12 -69 70 11 50
55 71 109 50z"/>
<path d="M1640 8305 c0 -32 9 -36 190 -80 80 -20 151 -38 159 -41 28 -10 -6
-23 -135 -52 -220 -51 -216 -49 -212 -80 l3 -27 213 -3 c184 -2 212 0 212 13
0 13 -27 15 -192 15 -237 1 -235 9 16 64 149 33 176 42 176 57 0 20 -3 21
-205 69 -162 38 -165 39 -165 51 0 5 77 9 185 9 158 0 185 2 185 15 0 13 -31
15 -215 15 l-215 0 0 -25z"/>
<path d="M8524 8196 c-52 -23 -74 -61 -74 -126 0 -72 18 -96 109 -150 77 -44
99 -78 82 -123 -20 -51 -81 -45 -102 10 -7 19 -16 23 -55 23 l-47 0 6 -36 c7
-44 31 -72 74 -90 71 -30 165 -9 206 47 49 67 23 173 -53 219 -88 53 -105 66
-116 89 -16 30 -6 60 22 73 27 13 51 -2 65 -40 8 -20 15 -23 51 -20 39 3 43 5
40 28 -3 36 -22 67 -50 86 -33 22 -120 28 -158 10z"/>
<path d="M9635 8196 c-78 -36 -111 -129 -102 -288 8 -152 47 -208 149 -215 86
-7 143 35 163 120 7 27 7 27 -42 27 -46 0 -50 -2 -64 -32 -18 -43 -66 -47 -86
-8 -19 38 -17 262 3 301 21 42 63 38 84 -8 14 -30 19 -33 63 -33 l49 0 -7 33
c-9 41 -29 73 -59 92 -34 22 -115 28 -151 11z"/>
<path d="M10894 8196 c-52 -23 -74 -61 -74 -126 0 -72 18 -96 109 -150 77 -45
102 -83 83 -125 -22 -49 -82 -41 -103 12 -7 19 -16 23 -55 23 l-47 0 6 -36 c7
-44 31 -72 74 -90 71 -30 165 -9 206 47 49 67 23 173 -53 219 -88 53 -105 66
-116 89 -16 30 -6 60 22 73 27 13 51 -2 65 -40 8 -20 15 -23 51 -20 39 3 43 5
40 28 -3 36 -22 67 -50 86 -33 22 -120 28 -158 10z"/>
<path d="M8824 8187 c-2 -7 -3 -118 -2 -247 l3 -235 47 -3 47 -3 3 98 3 98 58
7 c78 10 113 33 133 85 31 80 4 160 -67 195 -43 22 -217 26 -225 5z m181 -82
c39 -38 27 -107 -20 -125 -47 -18 -65 2 -65 68 0 84 35 107 85 57z"/>
<path d="M9200 7950 l0 -250 129 0 c139 0 141 1 141 56 0 24 -2 24 -85 24
l-86 0 3 68 3 67 73 3 72 3 0 39 0 39 -72 3 -73 3 0 55 0 55 78 3 77 3 0 39 0
40 -130 0 -130 0 0 -250z"/>
<path d="M9920 7951 l0 -251 50 0 50 0 -2 248 -3 247 -47 3 -48 3 0 -250z"/>
<path d="M10185 8190 c-8 -12 -95 -447 -95 -472 0 -15 9 -18 45 -18 28 0 47 5
49 13 2 6 8 30 12 52 l9 40 50 0 c53 0 54 -1 70 -77 5 -26 9 -28 55 -28 34 0
50 4 50 13 -1 6 -22 118 -48 247 l-48 235 -71 3 c-43 2 -74 -1 -78 -8z m96
-187 c7 -45 9 -88 6 -97 -8 -20 -56 -21 -63 -1 -6 15 14 171 23 188 11 19 24
-13 34 -90z"/>
<path d="M10494 8187 c-2 -7 -3 -118 -2 -247 l3 -235 128 -3 127 -3 0 41 0 40
-74 0 c-58 0 -75 3 -80 16 -3 9 -6 103 -6 210 l0 194 -45 0 c-28 0 -48 -5 -51
-13z"/>
<path d="M6530 8024 c-217 -46 -401 -86 -407 -89 -10 -3 -13 -40 -13 -139 0
-120 2 -135 18 -140 65 -19 804 -166 812 -161 15 9 13 160 -2 173 -7 5 -44 15
-83 21 -38 7 -75 17 -82 23 -18 14 -18 154 0 165 6 4 48 15 92 23 l80 15 0 94
c0 55 -4 95 -10 97 -5 1 -188 -36 -405 -82z m88 -224 c4 -74 6 -73 -179 -45
-155 25 -201 38 -168 49 33 11 267 44 304 43 l40 -2 3 -45z"/>
<path d="M5230 8085 c-7 -9 -10 -25 -6 -41 l7 -26 172 2 c95 1 179 2 187 1 33
-2 -15 -25 -180 -86 -95 -35 -177 -70 -182 -77 -4 -7 -7 -29 -6 -48 l3 -35
275 0 275 0 0 30 0 30 -197 3 c-110 1 -198 6 -198 11 0 10 27 21 240 96 74 27
141 53 148 58 15 12 16 69 0 85 -9 9 -82 12 -269 12 -215 0 -259 -2 -269 -15z"/>
<path d="M4776 8080 c-47 -15 -66 -39 -66 -85 0 -31 6 -47 23 -64 32 -29 124
-44 201 -31 74 12 106 39 106 90 0 47 -22 77 -68 90 -44 12 -155 12 -196 0z
m219 -34 c38 -25 43 -63 11 -94 -23 -23 -36 -27 -101 -30 -93 -5 -140 3 -166
29 -40 40 -14 93 53 110 50 12 175 3 203 -15z"/>
<path d="M1640 7835 c0 -94 3 -115 14 -115 11 0 16 14 18 48 l3 47 198 3 c165
2 197 5 197 17 0 12 -32 15 -197 17 l-198 3 -3 48 c-2 33 -7 47 -18 47 -11 0
-14 -21 -14 -115z"/>
<path d="M4715 7810 c-4 -6 15 -10 50 -10 79 0 95 -11 95 -65 0 -72 -3 -75
-81 -75 -39 0 -69 -4 -69 -10 0 -6 62 -10 166 -10 107 0 163 3 159 10 -3 6
-39 10 -80 10 -82 0 -85 3 -85 75 0 55 15 65 105 65 42 0 64 4 60 10 -4 6 -68
10 -160 10 -92 0 -156 -4 -160 -10z"/>
<path d="M2321 7735 c-40 -34 -55 -84 -54 -180 1 -89 11 -123 44 -153 52 -49
157 -32 183 30 8 18 12 36 10 40 -11 18 -44 6 -58 -21 -17 -32 -41 -42 -72
-30 -34 12 -46 59 -42 162 3 103 19 137 63 137 23 0 55 -28 55 -48 0 -7 14
-12 30 -12 33 0 36 7 18 45 -26 58 -124 74 -177 30z"/>
<path d="M2591 7747 c-8 -10 -11 -66 -9 -188 l3 -174 94 -3 c67 -2 97 1 102
10 13 21 -1 28 -60 28 -36 0 -63 5 -70 13 -6 8 -12 75 -13 168 -3 131 -5 154
-19 157 -9 1 -21 -4 -28 -11z"/>
<path d="M2901 7747 c-50 -25 -65 -60 -69 -161 -5 -119 16 -178 74 -202 64
-27 129 -3 161 59 20 40 23 186 4 240 -22 65 -106 97 -170 64z m103 -60 c18
-24 21 -42 21 -121 -1 -109 -17 -146 -64 -146 -53 0 -66 29 -66 152 0 104 1
111 24 129 31 26 59 21 85 -14z"/>
<path d="M3153 7753 c-14 -3 -23 -12 -23 -23 0 -15 9 -19 43 -22 l42 -3 3
-162 2 -163 30 0 30 0 2 163 3 162 43 3 c33 2 42 7 42 21 0 11 -10 21 -22 25
-25 6 -160 6 -195 -1z"/>
<path d="M3793 7753 c-10 -4 -13 -51 -13 -189 l0 -185 28 3 27 3 3 177 c2 161
1 178 -15 186 -10 5 -24 7 -30 5z"/>
<path d="M3947 7753 c-4 -3 -7 -89 -7 -190 l0 -184 23 3 c21 3 22 7 25 136 1
72 6 132 11 132 4 0 32 -61 61 -135 l53 -135 34 0 33 0 0 184 c0 102 -4 187
-9 190 -5 4 -16 3 -25 0 -13 -5 -16 -26 -16 -130 0 -68 -4 -124 -9 -124 -5 0
-30 53 -56 118 -27 64 -55 123 -64 130 -16 13 -44 16 -54 5z"/>
<path d="M4334 7741 c-44 -27 -64 -84 -64 -184 1 -110 23 -161 77 -177 32 -10
46 -9 77 4 29 12 42 13 52 5 8 -6 21 -9 29 -5 12 4 15 25 15 101 l0 95 -61 0
c-52 0 -60 -2 -57 -17 2 -9 14 -20 28 -23 17 -4 26 -14 28 -31 10 -87 -82
-130 -114 -53 -18 43 -18 175 0 218 22 52 82 60 106 15 6 -11 21 -19 35 -19
35 0 32 32 -6 64 -38 32 -99 35 -145 7z"/>
<path d="M3440 7564 l0 -185 28 3 c27 3 27 4 30 83 3 87 8 95 63 95 51 0 59
-13 59 -103 l0 -78 28 3 27 3 3 183 2 182 -29 0 -30 0 -3 -72 -3 -73 -55 0
-55 0 -3 73 -3 72 -29 0 -30 0 0 -186z"/>
<path d="M1903 7651 c-18 -11 -45 -44 -60 -73 -40 -74 -66 -98 -106 -98 -80 0
-106 99 -36 136 35 18 40 49 7 39 -39 -11 -68 -52 -68 -96 0 -75 31 -108 101
-109 56 0 85 23 123 98 32 63 58 82 112 82 34 0 47 -5 63 -26 12 -15 21 -35
21 -46 0 -33 -29 -77 -55 -84 -14 -3 -25 -12 -25 -20 0 -22 36 -17 66 9 22 19
28 34 32 79 4 50 2 58 -25 88 -38 42 -102 51 -150 21z"/>
<path d="M5224 7636 c-3 -8 -4 -25 -2 -38 l3 -23 275 0 275 0 0 35 0 35 -273
3 c-230 2 -273 0 -278 -12z"/>
<path d="M4935 7563 c-27 -7 -54 -32 -72 -68 -36 -72 -91 -96 -126 -57 -24 26
-21 59 8 86 31 29 32 41 3 25 -32 -16 -38 -28 -38 -71 0 -49 28 -78 75 -78 40
0 65 20 95 79 23 45 45 61 88 61 35 0 62 -27 62 -63 0 -27 -30 -67 -50 -67 -5
0 -10 -4 -10 -10 0 -17 29 -11 50 10 14 14 20 33 20 65 0 43 -24 85 -49 85 -5
0 -15 2 -23 4 -7 2 -22 1 -33 -1z"/>
<path d="M8482 7533 c3 -26 14 -32 141 -84 133 -54 174 -77 152 -86 -5 -2 -73
-30 -150 -61 -129 -52 -140 -59 -143 -84 -2 -16 1 -28 7 -28 5 0 88 35 183 77
l173 77 128 4 c125 4 128 4 125 25 -3 21 -9 22 -133 27 l-130 5 -173 78 c-95
42 -175 77 -178 77 -3 0 -4 -12 -2 -27z"/>
<path d="M9872 7519 c-58 -14 -114 -71 -138 -140 -27 -77 -27 -311 -1 -387 35
-100 91 -143 186 -144 79 -1 125 16 165 63 49 58 61 111 61 279 0 113 -4 156
-18 196 -17 49 -60 100 -102 122 -32 16 -106 21 -153 11z m111 -100 c38 -29
57 -104 57 -225 0 -133 -14 -200 -50 -236 -53 -53 -115 -32 -147 49 -23 60
-26 295 -5 355 26 72 93 99 145 57z"/>
<path d="M10847 7520 c-74 -14 -127 -73 -135 -148 -9 -100 23 -144 153 -212
100 -53 113 -64 125 -110 14 -50 -3 -96 -42 -116 -56 -29 -116 -2 -143 63 -13
30 -18 33 -59 33 -25 0 -48 -4 -51 -10 -10 -16 16 -86 43 -115 35 -39 87 -57
158 -57 107 -1 164 33 198 114 19 43 20 78 6 130 -16 57 -52 92 -142 138 -111
57 -138 83 -138 132 0 98 126 120 156 28 11 -33 14 -35 63 -38 48 -3 51 -2 51
20 0 42 -42 111 -80 129 -43 21 -113 29 -163 19z"/>
<path d="M9257 7514 c-4 -4 -7 -24 -7 -45 l0 -38 73 -3 72 -3 3 -282 2 -283
55 0 55 0 2 283 3 282 73 3 73 3 -3 42 -3 42 -196 3 c-107 1 -198 -1 -202 -4z"/>
<path d="M10195 7511 c-3 -5 33 -98 80 -207 l85 -196 0 -124 0 -124 55 0 55 0
0 118 1 117 89 205 c48 112 86 208 84 212 -8 13 -91 9 -102 -5 -6 -7 -33 -73
-59 -147 -26 -73 -53 -135 -59 -137 -6 -2 -32 57 -60 133 -27 76 -55 143 -62
151 -15 15 -98 18 -107 4z"/>
<path d="M5572 7473 c-33 -6 -82 -60 -120 -131 -18 -34 -43 -68 -55 -77 -52
-37 -121 -2 -115 58 2 25 11 36 41 52 34 18 37 24 35 55 -3 31 -6 35 -28 31
-73 -10 -110 -58 -110 -143 0 -100 58 -154 157 -146 65 6 99 34 145 121 39 73
69 97 119 97 50 0 79 -28 79 -74 0 -25 -7 -40 -26 -55 -15 -12 -33 -21 -40
-21 -10 0 -14 -13 -14 -40 0 -35 3 -40 24 -40 30 0 87 39 104 70 8 16 12 51
10 97 -3 60 -7 76 -28 99 -43 46 -101 62 -178 47z"/>
<path d="M6620 7397 c-55 -17 -123 -94 -173 -193 -58 -116 -86 -144 -143 -144
-105 0 -116 122 -14 148 l35 8 3 87 3 87 -29 0 c-76 0 -149 -47 -182 -117 -19
-38 -23 -66 -24 -133 0 -101 14 -149 61 -201 54 -60 155 -83 248 -58 56 15
120 86 181 199 57 107 93 140 155 140 117 0 124 -154 8 -177 l-29 -5 0 -95 0
-94 38 7 c135 23 202 114 202 275 0 137 -52 229 -149 264 -50 17 -139 18 -191
2z"/>
<path d="M1644 7339 c-14 -24 28 -29 221 -26 181 2 200 4 203 20 3 16 -12 17
-207 17 -143 0 -212 -4 -217 -11z"/>
<path d="M1689 7205 c-34 -19 -49 -62 -49 -141 l0 -64 215 0 c182 0 215 2 215
15 0 11 -20 15 -97 17 l-98 3 -3 51 c-4 71 16 87 116 94 65 4 77 8 80 24 4 18
-1 18 -80 12 -61 -6 -88 -13 -104 -27 -22 -20 -44 -25 -44 -9 0 16 -56 40 -92
40 -18 -1 -45 -7 -59 -15z m106 -29 c38 -16 48 -40 43 -102 l-3 -39 -80 0 -80
0 -3 47 c-3 54 10 85 41 98 31 12 43 12 82 -4z"/>
<path d="M8805 7135 c-356 -90 -325 -79 -325 -124 l0 -39 289 -72 c159 -39
297 -73 307 -73 12 -1 20 6 22 20 3 22 2 23 -75 42 -24 6 -61 16 -83 21 l-41
11 3 91 3 92 98 24 c89 22 97 26 97 48 0 18 -5 24 -22 23 -13 0 -135 -29 -273
-64z m45 -125 c0 -43 -4 -70 -12 -72 -13 -5 -286 56 -295 66 -4 3 -4 8 -1 12
10 9 282 70 296 66 8 -3 12 -27 12 -72z"/>
<path d="M4686 7176 c-86 -32 -130 -100 -130 -201 -1 -120 30 -159 199 -252
113 -63 139 -95 133 -171 -8 -89 -73 -131 -153 -98 -29 12 -41 26 -58 66 l-21
50 -63 0 -64 0 7 -37 c22 -124 103 -186 239 -187 163 0 248 78 249 229 1 125
-43 183 -196 261 -124 63 -159 110 -137 188 12 42 42 66 84 66 43 0 73 -25 96
-77 l19 -44 57 3 58 3 -3 35 c-5 61 -39 118 -89 147 -56 32 -166 42 -227 19z"/>
<path d="M2248 7174 c-5 -4 -8 -189 -8 -412 l0 -404 153 4 c140 3 155 5 197
28 56 32 101 91 126 166 16 48 19 88 19 219 0 188 -15 249 -76 319 -58 66 -99
79 -264 84 -77 2 -143 1 -147 -4z m288 -134 c40 -38 54 -74 65 -166 13 -114
-2 -269 -32 -331 -26 -53 -85 -86 -147 -81 l-37 3 -3 304 -2 303 65 -4 c51 -3
70 -9 91 -28z"/>
<path d="M2880 6770 l0 -410 204 0 c113 0 207 3 209 8 3 4 7 27 8 52 l4 45
-145 5 -145 5 0 125 0 125 130 5 130 5 3 53 3 52 -120 0 c-65 0 -126 3 -135 6
-24 9 -24 209 0 218 9 3 72 6 140 6 l124 0 0 55 0 55 -205 0 -205 0 0 -410z"/>
<path d="M3571 7143 c-6 -21 -46 -195 -91 -387 -44 -192 -83 -360 -86 -373 -6
-22 -4 -23 59 -23 l65 0 10 48 c6 26 14 65 18 87 13 74 14 75 119 75 105 0
106 -1 119 -75 4 -22 12 -61 18 -87 l10 -48 70 0 c61 0 69 2 64 18 -3 9 -44
184 -91 387 -47 204 -90 380 -95 393 -9 20 -16 22 -94 22 l-85 0 -10 -37z
m139 -277 c17 -87 29 -165 26 -172 -8 -20 -135 -20 -142 0 -5 14 52 321 63
339 12 20 25 -19 53 -167z"/>
<path d="M4045 7168 c-3 -7 -4 -191 -3 -408 l3 -395 202 -3 202 -2 6 44 c4 25
4 49 0 55 -4 7 -56 11 -140 11 l-135 0 -2 353 -3 352 -63 3 c-44 2 -64 -1 -67
-10z"/>
<path d="M5224 7055 c-4 -8 -3 -26 0 -40 l6 -25 213 0 c148 0 219 -4 236 -13
52 -26 48 -111 -5 -136 -16 -7 -100 -11 -234 -11 l-210 0 -6 -25 c-14 -55 -13
-55 226 -55 247 0 275 6 310 62 28 46 28 150 0 196 -35 56 -63 62 -310 62
-187 0 -222 -2 -226 -15z"/>
<path d="M1645 6880 c-14 -22 10 -30 96 -30 l90 0 -3 -82 -3 -83 -92 -3 c-74
-2 -93 -6 -93 -18 0 -12 31 -14 218 -12 136 2 217 7 217 13 0 6 -45 12 -105
15 l-105 5 0 80 0 80 103 3 c91 2 103 5 100 20 -3 15 -24 17 -210 20 -133 1
-209 -1 -213 -8z"/>
<path d="M8670 6740 c-97 -16 -161 -62 -181 -129 -5 -20 -9 -74 -7 -121 l3
-85 305 0 305 0 3 72 c5 123 -27 192 -108 233 -68 35 -212 48 -320 30z m291
-73 c20 -9 48 -30 62 -47 27 -32 44 -103 32 -139 -6 -21 -9 -21 -268 -19
l-262 3 -3 34 c-9 88 30 151 106 176 64 20 281 15 333 -8z"/>
<path d="M12152 6654 l3 -47 134 -46 c74 -25 136 -51 138 -56 2 -6 -54 -30
-124 -54 -71 -24 -134 -48 -140 -53 -15 -12 -18 -98 -3 -98 5 0 92 34 194 75
l185 75 116 0 116 0 -3 48 -3 47 -125 5 -125 5 -173 73 c-95 39 -177 72 -183
72 -6 0 -9 -19 -7 -46z"/>
<path d="M6510 6670 c-14 -3 -35 -21 -47 -39 -19 -29 -23 -47 -23 -118 0 -101
16 -145 58 -162 39 -17 79 -4 106 33 18 23 21 42 21 126 0 84 -3 103 -21 126
-23 31 -57 43 -94 34z m74 -43 c17 -23 21 -43 21 -110 0 -122 -27 -167 -92
-155 -44 8 -72 166 -43 245 22 59 77 69 114 20z"/>
<path d="M7091 6671 c-13 -3 -34 -19 -45 -34 -18 -24 -21 -43 -21 -127 0 -85
3 -103 21 -127 28 -37 64 -50 101 -34 45 18 56 47 61 147 5 109 -11 156 -60
173 -17 6 -31 11 -32 10 -1 -1 -12 -4 -25 -8z m68 -30 c37 -37 41 -204 7 -256
-19 -29 -66 -34 -90 -10 -33 33 -46 144 -26 214 19 68 69 92 109 52z"/>
<path d="M7655 6670 c-47 -18 -60 -47 -63 -144 -6 -141 29 -198 110 -181 59
13 88 101 73 220 -10 82 -63 128 -120 105z m79 -43 c18 -24 21 -43 21 -117 0
-74 -3 -93 -21 -117 -16 -21 -30 -28 -55 -28 -29 0 -37 5 -51 35 -20 40 -25
161 -8 207 23 59 77 69 114 20z"/>
<path d="M11400 6661 c-19 -10 -45 -36 -57 -57 -20 -34 -23 -54 -23 -146 l0
-108 330 0 330 0 0 30 0 30 -133 0 c-90 0 -137 4 -145 12 -7 7 -12 39 -12 72
0 79 -27 135 -79 164 -51 29 -160 31 -211 3z m175 -55 c46 -20 67 -63 63 -134
l-3 -57 -130 0 -130 0 -3 57 c-4 70 17 114 61 133 42 18 99 19 142 1z"/>
<path d="M5970 6509 c0 -104 3 -158 10 -154 6 3 10 35 10 70 0 68 5 75 61 75
43 0 65 15 78 52 15 42 -1 91 -35 107 -14 6 -47 11 -74 11 l-50 0 0 -161z
m127 125 c7 -10 13 -35 13 -56 0 -46 -31 -71 -82 -66 -33 3 -33 3 -36 62 -4
83 0 90 50 83 23 -3 48 -14 55 -23z"/>
<path d="M6207 6663 c-11 -11 -8 -313 3 -313 6 0 10 30 10 70 0 78 15 96 67
84 44 -11 51 -21 58 -90 4 -35 12 -64 18 -64 15 0 2 115 -17 141 -14 20 -13
24 4 47 26 32 25 73 -1 106 -18 23 -28 26 -78 26 -32 0 -61 -3 -64 -7z m120
-29 c20 -20 24 -31 19 -57 -3 -18 -14 -38 -23 -44 -25 -19 -89 -17 -97 3 -10
27 -7 99 6 112 21 21 67 14 95 -14z"/>
<path d="M6710 6509 c0 -117 3 -158 11 -153 8 5 10 41 6 123 -6 113 2 177 18
139 3 -9 19 -71 34 -138 16 -66 31 -123 34 -126 15 -15 28 16 53 127 42 182
53 185 54 12 0 -89 4 -143 10 -143 6 0 10 60 10 160 0 153 -1 160 -20 160 -13
0 -22 -9 -26 -27 -39 -154 -61 -227 -70 -230 -8 -3 -20 31 -33 89 -37 160 -40
168 -61 168 -19 0 -20 -8 -20 -161z"/>
<path d="M7275 6663 c53 -8 55 -14 55 -169 0 -89 4 -144 10 -144 6 0 10 57 10
150 0 166 -7 148 65 163 11 3 -23 5 -75 4 -52 0 -81 -2 -65 -4z"/>
<path d="M7490 6510 c0 -100 4 -160 10 -160 6 0 10 60 10 160 0 100 -4 160
-10 160 -6 0 -10 -60 -10 -160z"/>
<path d="M7862 6508 c2 -155 2 -157 5 -38 5 193 10 194 87 8 34 -83 57 -124
69 -126 16 -3 17 10 17 157 0 101 -4 161 -10 161 -6 0 -10 -50 -10 -131 0 -97
-3 -130 -12 -127 -7 3 -35 60 -64 129 -75 178 -85 174 -82 -33z"/>
<path d="M8140 6650 c-24 -24 -26 -67 -4 -98 8 -12 37 -33 63 -47 50 -25 61
-39 61 -81 0 -46 -17 -64 -61 -64 -34 0 -42 4 -57 30 -9 16 -20 30 -24 30 -14
0 -8 -27 10 -51 15 -17 29 -22 65 -22 63 0 87 22 87 80 0 49 -17 71 -79 103
-42 21 -61 45 -61 79 0 51 77 71 106 26 19 -29 36 -34 27 -7 -16 45 -96 59
-133 22z"/>
<path d="M5545 6644 c-16 -8 -37 -25 -46 -36 l-17 -22 -32 27 c-27 23 -41 27
-92 27 -55 0 -63 -3 -93 -33 -28 -28 -34 -42 -40 -97 -3 -36 -5 -87 -3 -115
l3 -50 275 0 275 0 -1 106 c-1 85 -5 112 -20 138 -37 63 -141 91 -209 55z
m120 -78 c24 -10 36 -23 40 -43 4 -15 8 -34 11 -41 2 -7 -1 -23 -6 -37 -9 -24
-13 -25 -93 -25 -88 0 -107 8 -107 46 0 44 22 86 54 100 40 17 59 17 101 0z
m-232 -28 c13 -15 17 -34 15 -67 l-3 -46 -75 0 -75 0 -3 43 c-5 72 31 107 98
95 14 -2 33 -13 43 -25z"/>
<path d="M9310 6319 l0 -330 53 3 52 3 3 142 3 142 112 3 112 3 3 42 3 42
-113 3 -113 3 -3 93 -3 92 121 0 120 0 0 45 0 45 -175 0 -175 0 0 -331z"/>
<path d="M9766 6635 c-9 -25 -7 -618 3 -633 5 -9 25 -12 57 -10 l49 3 5 140 5
140 44 3 c52 4 97 -13 113 -42 7 -11 14 -70 17 -131 l6 -110 54 -3 54 -3 -5
118 c-4 120 -20 177 -54 190 -22 8 -17 33 12 56 56 44 69 132 32 207 -38 73
-68 84 -239 88 -129 3 -147 2 -153 -13z m254 -80 c54 -28 61 -122 13 -167 -20
-19 -35 -23 -86 -23 l-62 0 -3 103 -3 102 56 0 c31 0 69 -7 85 -15z"/>
<path d="M10300 6320 l0 -330 175 0 c188 0 182 -2 187 55 l3 30 -127 3 -128 3
0 104 0 105 115 0 115 0 0 45 0 44 -112 3 -113 3 -3 87 -3 87 118 3 118 3 3
43 3 42 -175 0 -176 0 0 -330z"/>
<path d="M10770 6320 l0 -330 175 0 175 0 11 27 c21 55 15 58 -121 63 l-125 5
0 100 0 100 112 3 c109 3 113 3 119 27 14 56 8 60 -116 65 l-115 5 0 85 0 85
117 3 c115 3 118 3 124 27 15 60 15 60 -179 63 l-177 2 0 -330z"/>
<path d="M1694 6550 c-49 -20 -69 -95 -42 -154 38 -85 322 -103 400 -26 23 23
28 37 28 75 0 40 -5 52 -34 81 -34 34 -76 46 -76 21 0 -7 16 -21 35 -30 62
-30 66 -96 8 -134 -21 -14 -52 -19 -143 -21 -129 -3 -172 9 -200 61 -13 24
-13 30 0 54 8 14 28 34 44 42 46 26 29 51 -20 31z"/>
<path d="M8487 6253 c-4 -3 -7 -17 -7 -30 l0 -23 307 2 c292 3 308 4 311 22 2
10 -2 22 -10 27 -15 10 -591 12 -601 2z"/>
<path d="M11415 6226 c-73 -33 -95 -83 -95 -217 l0 -99 330 0 330 0 0 30 0 29
-142 3 -143 3 -5 82 c-6 88 -20 117 -74 157 -34 26 -155 33 -201 12z m179 -72
c31 -20 49 -73 44 -134 l-3 -45 -130 0 -130 0 -3 40 c-7 82 26 146 81 159 39
8 115 -2 141 -20z"/>
<path d="M12235 6221 c-65 -30 -79 -65 -83 -208 l-4 -123 311 0 311 0 0 45 0
44 -132 3 -133 3 -3 46 c-2 38 2 52 21 75 23 27 29 28 133 33 l109 6 3 43 3
42 -94 0 c-118 0 -150 -6 -182 -36 -32 -29 -37 -30 -61 -3 -44 50 -129 62
-199 30z m163 -104 c19 -18 22 -30 20 -77 l-3 -55 -90 0 -90 0 -3 54 c-3 44 1
58 19 77 36 39 105 39 147 1z"/>
<path d="M587 6136 c-20 -7 -44 -20 -53 -27 -101 -84 -93 -457 12 -525 63 -42
176 -35 228 14 39 37 56 80 67 177 18 160 -19 308 -88 348 -42 24 -119 31
-166 13z m93 -86 c30 -16 40 -66 40 -194 0 -144 -11 -193 -46 -206 -34 -13
-60 2 -72 42 -16 52 -21 166 -13 252 7 65 13 83 31 98 25 21 34 22 60 8z"/>
<path d="M3990 6134 c-117 -31 -198 -106 -250 -230 -44 -105 -60 -219 -60
-419 0 -378 71 -541 265 -610 76 -27 242 -25 317 4 115 44 190 131 223 256 26
100 31 95 -95 95 l-110 0 -6 -27 c-22 -103 -62 -156 -132 -172 -105 -23 -172
36 -209 185 -22 87 -25 466 -5 554 31 137 89 202 181 202 95 0 139 -43 165
-164 l6 -28 111 0 112 0 -7 51 c-16 121 -84 228 -175 273 -91 46 -225 58 -331
30z"/>
<path d="M0 5855 l0 -285 55 0 55 0 0 187 c0 137 3 184 11 176 6 -6 35 -89 63
-185 l52 -173 67 -3 67 -3 -2 283 -3 283 -45 0 -45 0 -3 -172 c-2 -172 -11
-209 -32 -135 -5 20 -30 98 -54 172 l-44 135 -71 3 -71 3 0 -286z"/>
<path d="M897 6133 c-3 -5 16 -108 43 -228 26 -121 53 -246 60 -277 l11 -58
80 0 c43 0 79 2 79 5 0 2 27 126 60 276 33 149 57 275 54 280 -7 12 -101 12
-108 0 -3 -5 -19 -94 -36 -197 -17 -104 -33 -199 -35 -211 -9 -41 -23 -24 -31
35 -3 31 -19 129 -33 217 l-27 160 -56 3 c-31 2 -59 -1 -61 -5z"/>
<path d="M1367 6134 c-4 -4 -7 -133 -7 -286 l0 -278 150 0 149 0 7 36 c3 19 3
39 -2 44 -5 5 -50 10 -99 12 l-90 3 -3 65 c-4 82 6 90 105 90 l73 0 0 45 0 44
-87 3 -88 3 0 60 0 60 60 2 c33 2 75 5 93 9 32 5 33 7 30 47 l-3 42 -141 3
c-77 1 -143 -1 -147 -4z"/>
<path d="M1757 6133 c-4 -3 -7 -132 -7 -285 l0 -278 50 0 50 0 0 227 c0 143 4
223 9 218 6 -6 23 -107 38 -225 l28 -215 47 -3 c55 -4 47 -25 83 227 14 96 28
186 32 200 14 56 22 -18 22 -221 l1 -208 50 0 50 0 0 285 0 285 -79 0 c-44 0
-82 -4 -85 -9 -3 -4 -16 -77 -30 -161 -36 -222 -43 -222 -72 5 -9 72 -21 138
-26 148 -7 14 -22 17 -82 17 -40 0 -76 -3 -79 -7z"/>
<path d="M2328 6134 c-5 -4 -8 -133 -8 -286 l0 -278 123 0 c135 0 173 11 211
63 16 22 21 43 21 97 0 64 -2 71 -32 102 -18 19 -33 38 -33 42 0 4 11 21 25
38 30 35 34 111 10 158 -26 50 -66 64 -195 68 -63 2 -118 0 -122 -4z m204
-101 c23 -20 24 -80 1 -105 -10 -11 -30 -18 -55 -18 l-38 0 0 68 c0 38 3 72 7
76 11 11 64 -2 85 -21z m5 -229 c22 -22 25 -32 21 -76 -6 -60 -24 -78 -80 -78
l-38 0 0 90 0 90 35 0 c25 0 44 -8 62 -26z"/>
<path d="M2767 6133 c-4 -3 -7 -132 -7 -285 l0 -278 149 0 c83 0 152 3 154 8
3 4 7 23 9 42 l3 35 -97 3 -98 3 0 74 0 74 33 6 c17 3 57 6 87 8 l55 2 0 40 0
40 -85 5 -85 5 -3 63 -3 62 75 0 c100 0 106 3 106 56 l0 44 -143 0 c-79 0
-147 -3 -150 -7z"/>
<path d="M3160 5855 l0 -285 55 0 55 0 0 109 c0 122 7 138 60 126 41 -9 50
-29 57 -140 l6 -95 54 0 55 0 -4 109 c-3 104 -4 111 -31 138 l-27 29 30 33
c52 59 51 169 -2 218 -34 31 -91 43 -205 43 l-103 0 0 -285z m212 178 c21 -19
25 -90 5 -116 -17 -24 -86 -35 -98 -16 -10 16 -12 132 -2 142 13 13 77 7 95
-10z"/>
<path d="M4583 6118 c2 -7 81 -184 173 -393 l169 -380 3 -230 c2 -162 7 -232
15 -237 7 -4 50 -8 97 -8 47 0 90 4 97 8 8 5 13 75 15 237 l3 230 173 388 c94
213 172 390 172 393 0 2 -53 3 -117 2 l-118 -3 -38 -100 c-20 -55 -67 -182
-104 -283 -36 -100 -70 -181 -75 -180 -6 2 -38 82 -73 178 -34 96 -81 222
-103 280 l-40 105 -127 3 c-100 2 -126 0 -122 -10z"/>
<path d="M5607 6123 c-4 -3 -7 -284 -7 -624 l0 -617 23 -6 c36 -10 345 -7 441
4 119 14 192 47 255 116 57 62 80 120 88 219 10 128 -37 238 -128 296 -27 17
-49 36 -49 43 0 6 13 18 29 28 74 41 119 157 107 271 -15 146 -96 234 -244
266 -57 12 -504 16 -515 4z m465 -180 c54 -31 78 -77 78 -147 0 -129 -51 -170
-215 -171 l-100 0 -3 160 c-1 87 0 166 3 174 8 22 194 9 237 -16z m11 -507
c58 -29 89 -82 94 -164 13 -172 -60 -242 -252 -242 -102 0 -95 -17 -95 222 l0
210 108 -4 c80 -2 117 -8 145 -22z"/>
<path d="M6600 5506 c0 -560 2 -624 16 -630 20 -8 622 -8 650 0 17 5 23 16 28
57 4 29 9 67 12 85 l6 32 -233 0 c-129 0 -240 4 -247 8 -9 7 -12 52 -10 193
l3 184 218 3 217 2 0 90 0 90 -217 2 -218 3 0 160 0 160 228 3 227 2 0 90 0
90 -340 0 -340 0 0 -624z"/>
<path d="M7480 5506 l0 -624 23 -6 c41 -11 173 -6 190 7 15 11 17 42 19 272
l3 260 65 3 c128 7 200 -26 231 -103 6 -17 15 -115 18 -224 7 -173 9 -195 26
-207 20 -15 171 -20 192 -6 9 6 10 57 3 222 -10 256 -18 289 -91 354 -27 24
-49 48 -49 53 0 5 16 17 35 28 84 44 131 156 123 290 -10 160 -98 260 -256
294 -31 6 -153 11 -292 11 l-240 0 0 -624z m498 426 c47 -34 65 -76 65 -153 0
-87 -24 -135 -83 -166 -37 -20 -58 -23 -147 -23 l-103 0 0 186 0 186 118 -4
c103 -3 121 -6 150 -26z"/>
<path d="M9057 6104 c-4 -4 -7 -53 -7 -110 0 -84 -3 -103 -16 -108 -9 -3 -137
-6 -285 -6 l-269 0 0 -25 0 -25 308 2 307 3 0 135 c0 114 -2 135 -15 138 -9 1
-19 0 -23 -4z"/>
<path d="M9402 5833 c-19 -9 -42 -33 -55 -57 -19 -35 -22 -57 -22 -156 0 -97
3 -121 21 -155 25 -50 72 -75 139 -75 110 0 159 70 159 230 0 114 -23 178 -76
210 -41 25 -119 26 -166 3z m125 -83 c8 -15 13 -66 13 -130 0 -124 -11 -154
-57 -158 -48 -5 -58 22 -58 158 0 136 10 163 58 158 22 -2 35 -11 44 -28z"/>
<path d="M9750 5620 l0 -220 50 0 49 0 3 93 3 92 73 3 c72 3 72 3 72 31 0 35
-13 41 -91 41 l-59 0 0 55 0 55 64 0 c83 0 96 6 96 41 l0 29 -130 0 -130 0 0
-220z"/>
<path d="M10100 5619 l0 -220 48 3 47 3 5 90 5 90 68 3 68 3 -3 32 -3 32 -67
3 -68 3 0 54 0 54 71 3 c75 3 99 17 86 52 -5 14 -25 16 -132 16 l-125 0 0
-221z"/>
<path d="M10450 5620 l0 -221 128 3 127 3 3 28 3 27 -68 0 c-91 0 -105 11
-101 75 l3 50 75 5 75 5 0 30 c0 30 0 30 -65 33 -79 4 -92 13 -88 66 l3 41 75
5 75 5 3 33 3 32 -125 0 -126 0 0 -220z"/>
<path d="M10810 5621 l0 -221 45 0 45 0 0 76 c0 82 11 114 39 114 43 0 62 -31
68 -113 l6 -78 45 3 45 3 -2 75 c-1 56 -7 82 -21 102 -25 34 -25 30 6 75 34
49 29 112 -10 152 -25 25 -32 26 -146 29 l-120 4 0 -221z m182 142 c22 -20 23
-70 1 -95 -9 -10 -30 -18 -49 -18 -28 0 -33 4 -39 31 -4 17 -4 46 -1 65 6 30
10 34 38 34 17 0 40 -7 50 -17z"/>
<path d="M11652 5735 c-166 -40 -309 -76 -317 -79 -10 -4 -15 -20 -15 -50 0
-42 2 -45 33 -51 17 -4 164 -38 326 -76 162 -38 296 -69 298 -69 2 0 3 13 3
30 0 22 -5 31 -22 35 -13 3 -57 14 -98 23 l-75 17 -3 92 c-2 81 -1 92 15 97
10 2 55 13 101 22 l82 17 0 34 c0 20 -5 33 -12 32 -7 0 -149 -33 -316 -74z
m66 -126 c2 -48 -1 -68 -10 -71 -20 -7 -301 55 -305 68 -4 12 245 73 287 71
24 -2 25 -6 28 -68z"/>
<path d="M12688 5683 l-3 -108 -95 0 -95 0 -3 98 -3 97 -39 0 -40 0 0 -88 c0
-55 -4 -92 -12 -100 -7 -7 -40 -12 -78 -12 -38 0 -71 5 -78 12 -8 8 -12 46
-12 105 l0 93 -40 0 -41 0 3 -147 3 -148 308 -3 307 -2 0 155 0 155 -40 0 -39
0 -3 -107z"/>
<path d="M8675 5704 c-81 -13 -134 -35 -164 -69 -36 -42 -45 -71 -39 -130 11
-91 77 -138 222 -157 110 -14 252 1 321 33 74 35 107 108 85 191 -15 54 -58
94 -123 113 -52 16 -245 28 -302 19z m306 -76 c77 -34 103 -105 59 -161 -37
-47 -99 -62 -260 -62 -128 0 -151 3 -192 22 -114 52 -97 174 29 209 67 19 315
13 364 -8z"/>
<path d="M873 5393 c-10 -3 -13 -66 -13 -264 l0 -259 26 0 26 0 -2 213 c-2
256 -3 254 9 242 8 -8 101 -424 101 -450 0 -3 12 -5 28 -3 30 3 29 3 107 341
14 64 31 115 36 112 5 -4 9 -105 9 -231 l0 -224 25 0 25 0 0 260 0 260 -24 6
c-57 14 -61 7 -114 -208 -47 -193 -65 -237 -76 -186 -3 13 -23 103 -45 202
-22 101 -45 182 -52 187 -15 9 -46 10 -66 2z"/>
<path d="M1387 5394 c-4 -4 -7 -124 -7 -266 l0 -258 126 0 c114 0 125 2 122
18 -3 14 -17 17 -101 20 l-97 3 0 103 c0 120 -4 116 113 116 60 0 68 2 65 18
-3 14 -17 17 -91 20 l-87 3 0 89 0 89 93 3 c84 3 92 5 92 23 0 19 -8 20 -111
23 -60 1 -113 -1 -117 -4z"/>
<path d="M1773 5381 c-41 -26 -53 -49 -53 -106 0 -67 20 -96 91 -135 34 -19
78 -49 96 -66 28 -27 33 -39 33 -78 0 -61 -32 -96 -87 -96 -47 0 -76 19 -93
60 -9 21 -19 30 -36 30 -28 0 -29 -8 -10 -55 20 -47 69 -75 129 -75 96 0 149
50 149 141 0 68 -25 104 -102 149 -97 56 -120 81 -120 129 0 57 27 83 83 79
36 -3 45 -8 66 -40 14 -21 32 -38 43 -38 28 0 23 45 -11 82 -24 27 -36 32 -87
35 -46 3 -66 0 -91 -16z"/>
<path d="M2148 5385 c-37 -21 -58 -64 -58 -119 0 -57 30 -94 111 -137 80 -43
109 -78 109 -133 0 -62 -29 -96 -81 -96 -53 0 -78 14 -95 56 -11 26 -20 34
-39 34 -29 0 -30 -8 -11 -55 20 -47 69 -75 129 -75 100 0 151 50 150 147 0 70
-31 109 -122 157 -81 42 -101 66 -101 118 0 97 130 109 163 16 4 -10 16 -18
27 -18 30 0 26 43 -9 82 -24 28 -35 32 -87 35 -40 2 -68 -2 -86 -12z"/>
<path d="M2574 5392 c-9 -6 -134 -483 -134 -512 0 -5 10 -10 23 -10 20 0 25 9
42 78 l20 77 77 3 77 3 10 -38 c6 -21 15 -57 21 -80 9 -36 15 -43 35 -43 14 0
25 5 25 11 0 23 -124 494 -133 507 -10 13 -46 16 -63 4z m67 -183 c30 -129 27
-139 -40 -139 -66 0 -67 6 -42 122 12 57 25 111 28 121 11 39 28 6 54 -104z"/>
<path d="M2923 5379 c-17 -11 -42 -41 -55 -67 -21 -42 -23 -61 -23 -187 0
-122 3 -146 22 -187 36 -79 125 -103 193 -53 34 25 35 25 44 5 5 -11 15 -20
23 -20 10 0 13 29 13 140 l0 141 -67 -3 c-55 -2 -68 -6 -71 -20 -3 -15 4 -18
37 -18 53 0 63 -18 51 -100 -11 -78 -37 -110 -89 -110 -43 1 -62 14 -87 60
-15 29 -19 57 -19 160 0 79 5 139 13 162 33 94 143 107 178 22 9 -22 21 -34
34 -34 42 0 11 88 -40 115 -42 22 -118 19 -157 -6z"/>
<path d="M3273 5393 c-10 -3 -13 -66 -13 -264 l0 -259 125 0 c118 0 125 1 125
20 0 18 -8 20 -97 22 l-98 3 -3 95 c-3 117 0 120 111 120 69 0 78 2 75 18 -3
14 -18 18 -93 22 l-90 5 0 85 0 85 85 3 c89 3 119 14 99 38 -8 10 -38 14 -113
13 -55 0 -107 -3 -113 -6z"/>
<path d="M12152 5353 l3 -48 245 -52 c135 -29 247 -52 249 -53 3 0 1 -4 -5
-10 -5 -5 -59 -19 -119 -30 -61 -11 -168 -33 -240 -48 l-130 -28 0 -49 c0 -44
2 -50 20 -47 11 2 149 35 308 74 l287 70 0 58 0 59 -37 10 c-125 33 -564 141
-573 141 -7 0 -10 -18 -8 -47z"/>
<path d="M9310 5040 l0 -191 23 3 c21 3 22 7 27 158 3 86 9 149 13 142 5 -7
19 -72 33 -145 13 -72 26 -138 29 -144 4 -11 55 -20 55 -10 0 2 14 71 30 152
17 81 30 150 30 152 0 1 4 3 10 3 6 0 11 -62 12 -152 l3 -153 25 0 25 0 0 185
0 185 -47 3 -46 3 -17 -78 c-30 -140 -40 -173 -50 -174 -5 0 -21 55 -35 123
l-25 123 -47 3 -48 3 0 -191z"/>
<path d="M9781 5193 c-31 -118 -81 -324 -81 -333 0 -6 12 -10 27 -8 22 3 28
10 37 48 l11 45 55 0 55 0 14 -47 c13 -43 18 -48 43 -48 15 0 28 2 28 5 0 14
-81 332 -90 353 -8 17 -18 22 -49 22 -38 0 -41 -2 -50 -37z m79 -112 c12 -63
12 -73 0 -81 -19 -12 -41 -12 -59 -1 -11 7 -11 21 4 85 10 49 21 76 28 73 7
-2 19 -36 27 -76z"/>
<path d="M10040 5040 l0 -191 28 3 c26 3 27 5 32 83 l5 80 30 3 c52 5 69 -17
75 -95 5 -65 6 -68 33 -71 27 -3 27 -3 27 55 0 39 -7 72 -20 97 -19 39 -19 39
0 64 30 37 27 102 -6 133 -22 21 -37 24 -115 27 l-89 4 0 -192z m159 124 c26
-33 26 -45 0 -78 -17 -22 -28 -27 -58 -24 -36 3 -36 4 -39 52 -4 66 1 76 42
76 25 0 40 -7 55 -26z"/>
<path d="M10360 5040 l0 -191 28 3 c26 3 27 5 30 68 3 64 20 100 47 100 6 0
29 -38 50 -85 35 -78 40 -85 66 -85 16 0 29 4 29 9 0 4 -23 57 -51 116 l-51
107 46 67 c25 36 46 70 46 74 0 4 -12 7 -27 7 -24 0 -36 -13 -81 -80 -28 -44
-56 -80 -62 -80 -5 0 -10 35 -12 78 -3 76 -3 77 -30 80 l-28 3 0 -191z"/>
<path d="M10680 5040 l0 -190 100 0 c93 0 100 1 100 20 0 18 -7 20 -63 20 -36
0 -68 5 -75 12 -7 7 -12 33 -12 58 0 25 5 51 12 58 7 7 38 12 70 12 51 0 58 2
58 20 0 18 -7 20 -64 20 -70 0 -76 5 -76 65 0 43 20 55 95 55 48 0 56 3 53 18
-3 14 -17 17 -101 20 l-97 3 0 -191z"/>
<path d="M10940 5210 c0 -16 7 -20 33 -20 55 0 56 -3 59 -175 l3 -160 28 -3
27 -3 0 160 c0 148 1 161 19 171 11 5 31 10 45 10 19 0 26 5 26 20 0 19 -7 20
-120 20 -113 0 -120 -1 -120 -20z"/>
<path d="M11254 5217 c-2 -7 -3 -91 -2 -187 l3 -175 28 -3 27 -3 0 190 0 191
-25 0 c-14 0 -28 -6 -31 -13z"/>
<path d="M11415 5218 c-3 -8 -4 -92 -3 -188 3 -173 3 -175 26 -178 22 -3 22
-3 22 133 0 105 3 136 13 133 6 -2 35 -62 63 -134 l52 -129 33 0 34 0 0 185
c0 183 0 185 -22 188 -22 3 -22 1 -25 -122 -2 -76 -7 -126 -13 -125 -5 0 -33
56 -60 122 -49 118 -51 122 -83 125 -20 2 -34 -2 -37 -10z"/>
<path d="M11801 5205 c-40 -34 -55 -84 -54 -181 1 -101 21 -150 70 -170 33
-14 76 -10 101 9 9 7 20 6 36 -3 39 -20 46 -6 46 95 0 75 -3 94 -16 99 -23 9
-77 7 -93 -3 -20 -13 -7 -39 21 -43 20 -3 23 -8 22 -45 -1 -51 -17 -73 -55
-73 -57 0 -73 38 -68 169 3 70 8 93 23 110 27 29 71 28 92 -4 21 -32 64 -35
64 -5 0 12 -11 32 -25 45 -35 36 -121 36 -164 0z"/>
<path d="M8480 5195 l0 -25 124 0 c94 0 126 -3 135 -14 8 -9 11 -48 9 -112
l-3 -99 -133 -3 -133 -3 3 -27 3 -27 305 0 305 0 0 25 0 25 -150 5 -150 5 -3
99 c-2 64 1 103 9 112 9 11 44 14 155 14 l144 0 0 25 0 25 -310 0 -310 0 0
-25z"/>
<path d="M12150 4855 l0 -45 310 0 310 0 0 45 0 45 -310 0 -310 0 0 -45z"/>
<path d="M12697 4723 c-4 -3 -7 -51 -7 -105 l0 -98 -267 -2 -268 -3 0 -45 0
-45 308 -3 307 -2 0 149 c0 126 -2 150 -16 155 -21 8 -49 8 -57 -1z"/>
<path d="M3296 4670 c-83 -26 -111 -97 -111 -280 0 -148 13 -194 66 -233 77
-56 192 -10 215 86 5 24 3 27 -17 27 -18 -1 -29 -11 -44 -43 -37 -78 -116 -72
-153 11 -11 26 -16 70 -16 152 -1 137 6 179 39 214 45 49 124 27 141 -39 4
-18 13 -25 31 -25 23 0 24 3 18 33 -18 78 -91 121 -169 97z"/>
<path d="M2125 4657 c-3 -7 -4 -125 -3 -262 3 -250 3 -250 25 -253 22 -3 22
-1 25 110 l3 113 70 8 c108 11 149 53 149 154 0 98 -58 143 -187 143 -53 0
-79 -4 -82 -13z m175 -42 c55 -29 63 -130 13 -176 -19 -19 -36 -24 -81 -24
l-57 0 -3 94 c-1 52 -1 100 2 108 7 18 89 17 126 -2z"/>
<path d="M2490 4405 l0 -265 120 0 c113 0 120 1 120 20 0 19 -7 20 -90 20
-107 0 -110 3 -110 112 0 100 6 107 105 110 63 2 80 6 80 18 0 12 -17 16 -80
18 -96 3 -105 11 -105 95 0 92 6 97 105 97 78 0 85 2 85 20 0 19 -7 20 -115
20 l-115 0 0 -265z"/>
<path d="M2827 4663 c-4 -3 -7 -123 -7 -265 l0 -258 25 0 25 0 0 119 c0 129 1
131 60 131 42 0 77 -16 91 -42 7 -13 15 -63 18 -113 6 -84 8 -90 29 -93 20 -3
22 1 21 40 -1 106 -15 177 -39 204 -22 23 -23 27 -10 37 33 25 50 62 50 110 0
100 -47 137 -177 137 -44 0 -83 -3 -86 -7z m166 -45 c35 -18 46 -40 47 -91 0
-38 -5 -53 -25 -73 -22 -22 -32 -25 -83 -22 l-57 3 -3 84 c-2 46 -1 90 2 98 7
16 89 18 119 1z"/>
<path d="M3565 4657 c-3 -7 -4 -125 -3 -262 l3 -250 120 0 c106 0 120 2 123
18 3 15 -6 17 -91 17 -77 0 -96 3 -101 16 -11 29 -7 179 6 192 7 7 43 12 90
12 71 0 78 2 78 20 0 17 -8 19 -87 22 l-88 3 -3 78 c-2 50 1 84 9 93 8 10 35
14 95 14 77 0 84 2 84 20 0 19 -7 20 -115 20 -84 0 -117 -3 -120 -13z"/>
<path d="M3900 4406 c0 -259 1 -266 20 -266 19 0 20 7 20 216 0 164 3 215 12
212 7 -3 49 -99 93 -214 81 -208 81 -209 113 -212 l32 -3 0 265 c0 259 -1 266
-20 266 -19 0 -20 -7 -20 -211 0 -156 -3 -210 -12 -207 -6 2 -48 96 -92 209
-81 203 -82 204 -114 207 l-32 3 0 -265z"/>
<path d="M4267 4663 c-21 -20 -4 -32 51 -35 l57 -3 5 -240 c5 -240 5 -240 28
-243 l22 -3 0 233 c0 169 3 237 12 246 7 7 34 12 60 12 41 0 48 3 48 20 0 19
-7 20 -138 20 -76 0 -142 -3 -145 -7z"/>
<path d="M6905 4660 c-160 -24 -254 -130 -291 -330 -21 -111 -15 -414 10 -505
54 -193 143 -273 315 -283 227 -13 349 92 392 338 18 107 16 376 -4 470 -34
153 -113 261 -215 294 -62 19 -145 26 -207 16z m117 -191 c39 -21 60 -93 68
-231 8 -144 -2 -362 -19 -425 -22 -80 -99 -116 -155 -72 -50 39 -61 106 -61
364 0 251 8 305 53 350 27 27 77 33 114 14z"/>
<path d="M853 4653 c-10 -3 -13 -46 -13 -164 l0 -160 43 3 42 3 5 50 5 50 218
3 217 2 0 55 0 55 -220 0 -220 0 0 43 c0 24 -5 48 -12 55 -12 12 -43 15 -65 5z"/>
<path d="M1835 4653 c-30 -8 -72 -51 -105 -109 -16 -29 -38 -55 -49 -59 -53
-17 -86 54 -36 77 21 9 25 18 25 51 0 38 -1 39 -27 33 -16 -4 -40 -20 -55 -37
-24 -24 -28 -38 -28 -84 0 -71 34 -113 96 -122 58 -8 91 14 144 93 41 62 49
69 82 72 29 2 39 -1 48 -18 15 -28 5 -54 -25 -68 -21 -10 -25 -19 -25 -52 0
-22 2 -40 5 -40 20 0 75 32 89 51 18 26 22 113 6 153 -17 45 -89 74 -145 59z"/>
<path d="M4787 4619 c-70 -37 -98 -148 -58 -235 19 -42 57 -75 107 -94 87 -33
294 -28 378 9 84 37 112 137 64 223 -21 37 -21 40 -5 49 10 6 17 22 17 39 l0
30 -155 0 -155 0 0 -84 c0 -74 2 -85 19 -91 32 -10 50 5 53 43 l3 37 64 -1
c57 -1 67 -4 88 -28 40 -47 26 -107 -31 -131 -83 -35 -301 -26 -356 14 -54 39
-49 105 10 139 26 15 30 23 30 60 0 49 -13 53 -73 21z"/>
<path d="M5502 4103 l3 -538 103 -3 103 -3 -2 436 c-1 239 1 438 4 442 13 12
20 -33 76 -450 l56 -422 98 -3 c53 -1 97 1 97 5 0 4 7 46 15 93 8 47 35 229
60 405 52 363 52 365 65 365 6 0 10 -157 10 -435 l0 -435 110 0 110 0 0 540 0
540 -172 -2 -171 -3 -33 -195 c-18 -107 -40 -247 -50 -310 -16 -109 -26 -141
-40 -128 -3 4 -16 89 -29 190 -26 204 -53 391 -60 426 -5 22 -7 22 -180 22
l-175 0 2 -537z"/>
<path d="M7530 4100 l0 -540 106 0 106 0 -3 355 c-2 222 0 355 6 356 5 0 58
-156 117 -347 58 -190 111 -351 116 -356 5 -5 65 -7 133 -6 l124 3 3 538 2
537 -106 0 -106 0 4 -335 c2 -208 0 -334 -6 -332 -5 2 -57 151 -116 333 l-106
329 -137 3 -137 3 0 -541z"/>
<path d="M8450 4100 l0 -542 213 4 c190 4 218 7 269 27 109 42 177 133 214
286 25 100 25 394 0 484 -36 130 -95 209 -191 253 -47 21 -65 23 -277 26
l-228 3 0 -541z m388 343 c45 -33 63 -82 72 -205 10 -140 -3 -350 -25 -406
-10 -23 -31 -54 -47 -67 -26 -22 -39 -25 -87 -23 l-56 3 -3 349 c-2 264 1 352
10 363 17 21 101 12 136 -14z"/>
<path d="M9485 4628 c-5 -12 -215 -1054 -215 -1064 0 -2 54 -4 120 -4 66 0
120 3 120 6 0 32 34 212 42 222 12 13 184 17 205 4 6 -4 19 -50 28 -102 9 -52
18 -103 21 -112 5 -16 20 -18 125 -18 110 0 119 1 119 19 0 10 -47 249 -105
531 -58 283 -105 517 -105 522 0 4 -79 8 -175 8 -131 0 -177 -3 -180 -12z
m189 -215 c17 -86 56 -398 52 -409 -6 -16 -131 -20 -140 -5 -5 8 49 397 59
429 7 21 23 13 29 -15z"/>
<path d="M10020 4631 c0 -5 57 -157 127 -338 l127 -328 5 -200 6 -200 118 -3
117 -3 0 187 0 186 129 336 c71 186 133 345 136 355 7 16 -3 17 -117 17 l-123
0 -61 -232 c-33 -128 -66 -234 -72 -236 -6 -2 -15 14 -20 35 -11 44 -91 353
-104 401 l-9 32 -129 0 c-73 0 -130 -4 -130 -9z"/>
<path d="M10986 4632 c-2 -4 10 -93 28 -198 l32 -189 42 -3 c23 -2 42 -2 42 0
0 16 41 222 45 226 11 11 18 -10 31 -85 27 -158 20 -143 64 -143 28 0 40 5 44
18 15 49 66 357 62 368 -6 17 -52 19 -62 3 -3 -6 -12 -65 -20 -131 -19 -175
-27 -174 -54 1 -10 67 -22 125 -25 131 -9 14 -55 12 -60 -2 -3 -7 -14 -66 -24
-132 -28 -170 -38 -172 -52 -9 -12 135 -19 153 -58 153 -16 0 -32 -4 -35 -8z"/>
<path d="M11447 4634 c-4 -4 -7 -94 -7 -201 l0 -193 105 0 c109 0 105 -1 109
43 1 8 -21 14 -64 17 l-65 5 -3 49 c-4 58 4 66 71 66 47 0 48 1 45 28 -3 26
-6 27 -60 30 l-58 3 0 43 c0 51 8 56 81 56 49 0 50 1 47 28 l-3 27 -95 3 c-53
1 -99 0 -103 -4z"/>
<path d="M11724 4627 c-2 -7 -3 -96 -2 -197 l3 -185 78 -3 c122 -5 167 27 167
118 0 26 -8 48 -24 67 -24 28 -24 29 -5 52 23 28 25 88 4 118 -9 12 -32 27
-53 33 -54 15 -161 13 -168 -3z m151 -97 c0 -45 0 -45 -37 -48 l-38 -3 0 51 0
51 38 -3 c37 -3 37 -3 37 -48z m3 -128 c33 -42 0 -117 -50 -110 -21 3 -23 9
-26 62 -3 64 7 80 43 70 11 -3 26 -13 33 -22z"/>
<path d="M1602 4310 c-29 -27 -33 -49 -30 -150 l3 -85 194 -3 c213 -3 224 0
219 52 l-3 31 -87 3 -88 3 0 28 c0 41 22 54 103 60 l72 6 0 35 0 35 -66 3
c-63 3 -95 -5 -130 -30 -13 -9 -21 -7 -40 10 -31 30 -116 31 -147 2z m134 -85
c29 -45 16 -60 -51 -60 -50 0 -60 3 -63 18 -7 33 25 67 63 67 26 0 39 -6 51
-25z"/>
<path d="M12688 4223 l-3 -108 -95 0 -95 0 -5 95 -5 95 -37 3 -38 3 0 -85 c0
-119 2 -116 -90 -116 -62 0 -79 3 -84 16 -3 9 -6 56 -6 105 l0 90 -37 -3 -38
-3 -3 -147 -3 -148 311 0 310 0 0 149 c0 161 0 161 -55 161 -24 0 -24 -2 -27
-107z"/>
<path d="M1154 4266 c-35 -16 -68 -55 -109 -133 -32 -61 -71 -83 -111 -64 -21
9 -25 17 -22 44 2 25 10 35 36 47 31 13 33 17 30 59 -4 54 -19 61 -72 36 -83
-40 -102 -198 -32 -264 32 -30 97 -44 145 -31 45 12 73 41 126 128 43 71 72
90 119 78 58 -15 55 -87 -5 -108 -29 -10 -30 -13 -27 -62 3 -48 4 -51 28 -48
79 11 120 66 120 159 0 69 -13 104 -54 142 -32 30 -123 39 -172 17z"/>
<path d="M4724 4146 c-3 -8 -4 -27 -2 -43 l3 -28 187 0 c118 0 188 -4 189 -10
1 -5 -83 -44 -187 -87 l-189 -76 -3 -56 -3 -56 286 0 285 0 0 40 0 40 -206 0
c-151 0 -205 3 -202 12 2 6 94 46 204 88 l199 77 3 57 3 56 -281 0 c-233 0
-282 -2 -286 -14z"/>
<path d="M11006 4088 c-24 -35 -22 -142 4 -168 30 -30 85 -27 107 7 25 38 24
134 -1 162 -27 30 -89 29 -110 -1z m74 2 c44 -24 33 -170 -14 -170 -36 0 -46
20 -46 86 0 44 5 67 16 78 18 19 20 19 44 6z"/>
<path d="M11190 4011 c0 -55 4 -102 9 -105 14 -9 21 20 21 87 0 53 2 59 14 47
8 -8 25 -42 38 -75 14 -35 31 -61 41 -63 15 -3 17 8 17 102 0 117 -17 147 -22
39 -2 -38 -7 -67 -13 -66 -5 0 -22 30 -36 65 -20 45 -33 64 -48 66 -20 3 -21
-1 -21 -97z"/>
<path d="M11400 4006 l0 -106 55 0 c30 0 55 5 55 10 0 6 -18 10 -40 10 l-39 0
-3 92 c-2 62 -7 93 -15 96 -10 3 -13 -22 -13 -102z"/>
<path d="M11560 4005 c0 -58 4 -105 9 -105 15 0 21 29 21 105 0 76 -6 105 -21
105 -5 0 -9 -47 -9 -105z"/>
<path d="M11650 4011 c0 -56 4 -103 10 -106 6 -4 10 17 10 57 0 69 11 100 26
77 5 -8 20 -41 34 -74 15 -35 33 -61 43 -63 15 -3 17 8 17 102 0 64 -4 106
-10 106 -6 0 -10 -28 -10 -64 0 -36 -5 -68 -10 -71 -6 -4 -24 24 -42 64 -22
51 -36 71 -49 71 -17 0 -19 -9 -19 -99z"/>
<path d="M11860 4005 l0 -105 55 0 c30 0 55 5 55 10 0 6 -18 10 -39 10 -31 0
-41 4 -46 20 -12 38 3 60 41 60 19 0 34 5 34 10 0 6 -15 10 -34 10 -36 0 -51
18 -41 51 5 14 16 19 40 19 19 0 37 5 40 10 4 6 -15 10 -49 10 l-56 0 0 -105z"/>
<path d="M1925 3998 c-2 -7 -6 -40 -7 -73 l-3 -60 -55 0 -55 0 -3 63 c-3 61
-3 62 -32 62 -29 0 -30 -1 -30 -52 0 -71 -8 -80 -61 -76 l-44 3 -3 68 c-3 67
-3 67 -32 67 l-30 0 0 -110 0 -110 208 2 207 3 3 100 c2 85 0 102 -15 112 -22
16 -42 17 -48 1z"/>
<path d="M4400 3933 c-28 -10 -52 -38 -77 -88 -35 -70 -51 -85 -89 -85 -24 0
-38 7 -49 24 -19 29 -10 54 30 80 26 17 33 50 14 61 -18 12 -69 -16 -84 -46
-8 -15 -15 -48 -15 -73 0 -36 6 -52 29 -78 26 -29 36 -33 79 -33 58 0 91 24
124 90 38 75 77 102 122 85 54 -20 56 -89 5 -116 -22 -11 -29 -22 -29 -44 0
-34 9 -36 50 -15 45 23 60 53 60 118 0 54 -3 62 -34 93 -29 29 -41 34 -77 33
-24 0 -51 -3 -59 -6z"/>
<path d="M3865 3908 c-2 -7 -6 -40 -7 -73 l-3 -60 -34 -3 c-70 -7 -80 1 -83
71 -3 59 -4 62 -28 62 -23 0 -25 -4 -28 -55 -4 -64 -14 -80 -52 -80 -55 0 -60
7 -60 76 l0 64 -30 0 -30 0 0 -110 0 -110 208 2 207 3 3 99 c2 64 -1 103 -9
112 -14 17 -48 18 -54 2z"/>
<path d="M12338 3900 c-58 -10 -125 -46 -150 -81 -27 -36 -37 -90 -38 -191 l0
-88 310 0 310 0 0 93 c0 50 -5 109 -11 130 -14 50 -66 101 -126 121 -56 20
-226 29 -295 16z m244 -101 c63 -14 104 -51 113 -103 13 -65 9 -66 -225 -66
-115 0 -215 3 -224 6 -18 7 -22 58 -6 98 11 29 48 56 93 66 50 12 190 11 249
-1z"/>
<path d="M952 3862 c-62 -22 -90 -45 -108 -89 -31 -73 -3 -173 57 -211 78 -47
289 -55 381 -14 71 32 92 62 96 140 4 87 -17 127 -83 162 -42 21 -64 25 -169
27 -99 3 -131 0 -174 -15z m315 -114 c36 -17 42 -57 12 -84 -19 -17 -37 -19
-176 -19 -151 0 -155 1 -174 24 -23 29 -24 33 -1 62 12 13 36 25 63 30 63 11
244 3 276 -13z"/>
<path d="M10990 3670 c0 -113 1 -120 20 -120 19 0 26 14 32 70 2 19 11 26 38
31 38 8 70 40 70 71 0 10 -11 30 -25 43 -20 21 -34 25 -80 25 l-55 0 0 -120z
m104 68 c14 -23 -3 -52 -33 -56 -19 -3 -21 1 -21 38 0 37 2 41 21 38 12 -2 27
-11 33 -20z"/>
<path d="M11200 3670 c0 -113 1 -120 20 -120 17 0 20 7 20 43 0 53 11 70 41
65 21 -3 24 -9 27 -55 3 -49 5 -53 28 -53 l25 0 -3 118 c-3 113 -4 117 -25
120 -21 3 -23 -1 -23 -43 0 -33 -4 -47 -16 -52 -28 -11 -49 11 -52 56 -3 33
-7 41 -23 41 -18 0 -19 -8 -19 -120z"/>
<path d="M11447 3778 c-57 -44 -45 -204 18 -228 27 -10 71 -4 92 13 38 29 39
171 2 208 -22 22 -86 26 -112 7z m83 -44 c23 -61 5 -154 -29 -154 -28 0 -41
29 -41 90 0 28 5 60 10 71 15 28 49 24 60 -7z"/>
<path d="M11647 3783 c-4 -3 -7 -57 -7 -120 0 -106 1 -113 20 -113 18 0 20 7
20 69 0 39 4 72 9 76 8 5 33 -51 56 -123 5 -18 13 -22 33 -20 27 3 27 3 30 98
3 107 -2 140 -23 140 -10 0 -15 -17 -17 -67 -2 -38 -7 -68 -13 -68 -5 0 -21
30 -34 68 -19 55 -27 67 -46 67 -12 0 -25 -3 -28 -7z"/>
<path d="M11870 3670 l0 -121 68 3 c73 3 88 21 22 26 -33 3 -41 7 -46 28 -9
33 12 54 53 54 47 0 38 24 -10 28 -67 6 -58 72 9 72 24 0 34 5 34 15 0 12 -14
15 -65 15 l-65 0 0 -120z"/>
<path d="M1810 3697 c-14 -7 -39 -35 -57 -62 -60 -94 -62 -96 -96 -93 -26 2
-33 8 -35 30 -2 20 4 31 22 44 20 12 26 25 26 50 0 37 -12 42 -55 22 -34 -15
-55 -56 -55 -107 0 -84 36 -123 115 -123 55 0 81 20 128 99 32 54 67 78 98 68
45 -15 44 -76 -1 -90 -16 -5 -20 -15 -20 -46 0 -44 12 -49 59 -25 36 19 51 55
51 122 0 50 -3 59 -34 90 -28 28 -41 34 -77 34 -24 0 -55 -6 -69 -13z"/>
<path d="M4727 3653 c-4 -3 -7 -26 -7 -50 l0 -43 286 0 285 0 -3 48 -3 47
-276 3 c-151 1 -278 -1 -282 -5z"/>
<path d="M3865 3628 c-2 -7 -6 -38 -7 -68 l-3 -55 -172 -3 -173 -2 0 -40 0
-40 208 2 207 3 3 98 c3 97 3 97 -23 107 -33 13 -35 13 -40 -2z"/>
<path d="M4136 3595 c-15 -41 0 -45 152 -45 178 0 176 -5 -16 -76 -112 -41
-134 -53 -139 -73 -13 -53 -3 -56 214 -59 210 -3 232 2 217 42 -5 14 -27 16
-156 16 -110 0 -149 3 -146 12 2 6 70 36 151 66 151 56 166 67 152 112 -6 19
-15 20 -215 20 -175 0 -209 -2 -214 -15z"/>
<path d="M4803 3449 c-65 -32 -83 -78 -83 -217 l0 -112 285 0 285 0 0 45 0 45
-114 0 c-129 0 -126 -2 -126 83 -1 78 -30 133 -82 157 -56 25 -113 25 -165 -1z
m155 -102 c24 -25 34 -109 15 -128 -5 -5 -47 -9 -94 -7 l-84 3 -3 52 c-3 45 1
56 22 78 35 35 112 36 144 2z"/>
<path d="M903 3430 c-68 -41 -91 -131 -55 -214 18 -40 29 -51 79 -74 54 -25
67 -27 188 -27 152 1 209 19 245 77 27 45 28 140 0 186 -24 39 -75 72 -113 72
-28 0 -28 -1 -25 -52 3 -49 5 -52 36 -60 56 -15 57 -77 1 -97 -41 -14 -257
-14 -298 0 -61 21 -61 79 0 101 27 9 29 14 29 59 0 47 -1 49 -27 49 -16 0 -42
-9 -60 -20z"/>
<path d="M1570 3340 l0 -40 154 0 c180 0 206 -6 206 -49 0 -20 -7 -34 -19 -41
-11 -6 -89 -10 -181 -10 l-161 0 3 -42 3 -43 125 -3 c175 -4 227 3 262 38 25
26 28 35 28 95 0 63 -2 69 -34 101 l-34 34 -176 0 -176 0 0 -40z"/>
<path d="M5494 3367 c-2 -7 -3 -85 -2 -172 3 -152 4 -160 23 -160 18 0 21 8
25 70 l5 70 47 5 c56 7 85 31 94 77 9 48 -12 93 -52 109 -43 18 -133 19 -140
1z m128 -44 c34 -30 18 -96 -26 -107 -46 -11 -56 1 -56 65 l0 59 32 0 c17 0
40 -7 50 -17z"/>
<path d="M5756 3364 c-3 -9 -6 -80 -6 -159 0 -157 3 -175 31 -175 17 0 19 8
19 69 0 77 12 96 54 85 35 -8 40 -18 46 -89 4 -53 8 -60 28 -63 20 -3 22 0 22
47 0 28 -7 68 -16 90 -14 37 -14 42 0 63 18 25 21 80 6 108 -13 24 -62 40
-125 40 -39 0 -54 -4 -59 -16z m132 -36 c17 -17 15 -74 -4 -93 -10 -10 -29
-15 -48 -13 -29 3 -31 6 -34 47 -2 24 -1 50 2 57 7 17 67 19 84 2z"/>
<path d="M6030 3205 l0 -176 82 3 c70 3 83 6 86 21 3 15 -5 17 -56 17 -65 0
-72 6 -72 63 0 47 10 55 65 59 38 2 51 7 53 21 3 14 -4 17 -45 17 -57 0 -73
12 -73 56 0 41 15 52 75 56 36 2 50 7 50 18 0 12 -17 16 -82 18 l-83 3 0 -176z"/>
<path d="M6295 3355 c-18 -17 -25 -35 -25 -64 0 -41 19 -64 100 -115 57 -35
53 -116 -6 -116 -13 0 -29 7 -36 15 -32 39 -39 44 -53 39 -22 -9 -18 -32 10
-59 19 -20 34 -25 75 -25 68 0 100 30 100 93 0 48 -25 80 -87 111 -18 9 -40
28 -49 41 -15 23 -15 27 0 50 9 14 25 25 36 25 11 0 27 -11 36 -25 20 -30 54
-34 54 -6 0 56 -110 82 -155 36z"/>
<path d="M6534 3367 c-2 -7 -3 -85 -2 -172 l3 -160 85 0 c72 0 85 3 88 17 3
14 -7 17 -60 20 l-63 3 0 55 0 55 55 5 c41 4 56 9 58 22 3 14 -6 17 -55 20
l-58 3 0 50 0 50 58 3 c49 3 57 6 57 22 0 18 -7 20 -80 20 -57 0 -82 -4 -86
-13z"/>
<path d="M6780 3205 c0 -163 1 -176 18 -173 15 3 18 19 22 128 4 88 8 121 15
110 6 -8 28 -64 51 -125 37 -100 43 -110 67 -113 l27 -3 0 176 c0 163 -1 176
-17 173 -16 -3 -18 -18 -21 -116 -1 -61 -7 -112 -11 -112 -5 0 -29 51 -53 113
-40 102 -46 112 -71 115 l-27 3 0 -176z"/>
<path d="M7047 3374 c-18 -18 -5 -33 31 -36 l37 -3 5 -150 c5 -142 6 -150 25
-150 19 0 20 8 25 150 l5 150 35 5 c22 3 35 10 35 20 0 12 -19 16 -95 18 -53
1 -99 0 -103 -4z"/>
<path d="M7325 3355 c-18 -17 -25 -35 -25 -64 0 -41 18 -63 99 -114 41 -27 53
-56 37 -88 -14 -29 -58 -37 -78 -14 -33 39 -39 44 -53 39 -22 -9 -18 -32 10
-59 19 -20 34 -25 75 -25 68 0 100 29 100 94 0 47 -16 67 -100 120 -24 15 -36
30 -38 49 -7 56 42 76 76 32 23 -29 52 -33 52 -7 0 59 -108 85 -155 37z"/>
<path d="M7775 3373 c-73 -19 -95 -67 -95 -208 l0 -105 285 0 285 0 0 40 0 39
-122 3 -123 3 -3 34 c-5 48 5 79 30 92 12 6 64 14 117 18 l96 6 3 38 3 37 -88
0 c-101 0 -152 -12 -178 -40 -18 -20 -18 -20 -44 4 -43 41 -102 55 -166 39z
m126 -102 c19 -15 23 -28 24 -72 l0 -54 -87 -3 c-81 -3 -87 -1 -93 18 -10 32
3 88 26 111 26 26 98 26 130 0z"/>
<path d="M9331 3366 c-81 -27 -121 -85 -121 -176 0 -97 35 -141 162 -210 95
-51 128 -87 128 -140 0 -51 -16 -85 -47 -99 -60 -27 -122 0 -143 64 -11 34
-13 35 -67 35 l-55 0 7 -37 c21 -116 125 -178 256 -153 111 21 164 86 163 200
-1 107 -37 153 -182 228 -87 46 -112 75 -112 132 0 43 39 80 85 80 41 0 73
-27 82 -70 5 -29 8 -30 59 -30 48 0 54 2 54 20 0 27 -26 89 -48 113 -43 48
-145 67 -221 43z"/>
<path d="M9866 3368 c-53 -15 -110 -74 -130 -136 -42 -126 -38 -377 7 -476 28
-62 65 -91 132 -106 108 -24 214 31 243 126 21 71 19 75 -40 72 -47 -3 -52 -5
-61 -33 -16 -49 -46 -75 -88 -75 -74 0 -109 86 -109 270 0 210 53 305 147 265
27 -11 38 -29 57 -87 4 -14 17 -18 57 -18 l52 0 -7 47 c-8 60 -44 115 -90 137
-46 22 -120 28 -170 14z"/>
<path d="M10376 3366 c-100 -37 -146 -128 -153 -307 -13 -279 59 -414 221
-412 109 1 166 44 203 153 25 77 25 362 0 429 -22 57 -60 107 -97 126 -43 22
-128 28 -174 11z m130 -108 c36 -32 49 -100 49 -248 -1 -148 -13 -209 -50
-246 -24 -24 -65 -31 -100 -18 -51 20 -85 206 -67 364 13 104 32 147 74 164
36 16 65 11 94 -16z"/>
<path d="M12503 3371 c-70 -18 -116 -63 -133 -130 -25 -98 12 -176 109 -231
132 -75 152 -90 167 -127 41 -96 -39 -183 -129 -142 -26 12 -57 57 -57 83 0
13 -11 16 -56 16 l-57 0 6 -41 c13 -94 90 -152 206 -152 133 0 211 74 211 199
0 70 -27 132 -73 167 -18 13 -64 40 -104 60 -87 45 -113 75 -113 133 0 57 25
84 78 84 44 0 65 -18 83 -69 11 -31 13 -32 63 -29 50 3 51 3 48 33 -6 48 -44
107 -83 127 -42 22 -120 31 -166 19z"/>
<path d="M8428 3364 c-5 -4 -8 -164 -8 -356 l0 -348 123 0 c140 0 182 13 233
73 55 62 69 122 69 292 0 135 -2 155 -23 200 -28 61 -66 103 -112 123 -38 16
-269 30 -282 16z m240 -110 c54 -35 80 -170 63 -321 -11 -94 -38 -154 -76
-171 -39 -18 -112 -16 -119 4 -3 9 -6 121 -6 249 0 268 1 272 74 260 23 -3 52
-13 64 -21z"/>
<path d="M8977 3364 c-4 -4 -7 -164 -7 -356 l0 -348 55 0 55 0 -2 353 -3 352
-45 3 c-25 2 -49 0 -53 -4z"/>
<path d="M10797 3364 c-12 -13 -7 -566 6 -601 30 -80 94 -116 204 -116 92 1
147 28 183 93 l25 45 0 290 0 290 -50 0 -50 0 -5 -275 c-6 -335 -11 -350 -106
-350 -20 0 -44 5 -54 10 -42 22 -45 44 -50 335 l-5 280 -45 3 c-25 2 -49 0
-53 -4z"/>
<path d="M11357 3364 c-4 -4 -7 -164 -7 -356 l0 -348 50 0 50 0 0 256 c0 187
3 255 11 252 7 -2 52 -117 102 -256 l90 -252 64 0 63 0 -2 353 -3 352 -45 0
-45 0 0 -237 c-1 -143 -5 -239 -10 -240 -6 -2 -51 105 -100 237 l-90 240 -61
3 c-33 2 -63 0 -67 -4z"/>
<path d="M11877 3364 c-4 -4 -7 -27 -7 -50 l0 -43 73 -3 72 -3 5 -300 5 -300
55 0 55 0 5 300 5 300 73 3 73 3 -3 47 -3 47 -201 3 c-110 1 -203 -1 -207 -4z"/>
<path d="M3510 3290 l0 -40 208 2 207 3 0 35 0 35 -207 3 -208 2 0 -40z"/>
<path d="M4135 3230 c-3 -6 -3 -19 0 -30 6 -19 15 -20 215 -20 200 0 209 1
215 20 3 11 3 24 0 30 -8 14 -422 14 -430 0z"/>
<path d="M3731 3154 l-31 -26 -26 21 c-41 32 -98 28 -135 -8 -28 -28 -29 -33
-29 -125 l0 -96 208 2 207 3 3 55 c8 139 -27 200 -116 200 -40 0 -57 -6 -81
-26z m117 -70 c17 -12 22 -24 20 -47 l-3 -32 -65 0 c-63 0 -65 1 -68 27 -7 56
65 88 116 52z m-181 -20 c25 -39 8 -59 -53 -59 -45 0 -49 2 -52 26 -7 58 72
82 105 33z"/>
<path d="M4346 3070 c-109 -27 -203 -54 -207 -62 -11 -16 -11 -59 -1 -74 11
-18 412 -108 424 -96 20 20 -1 51 -40 58 -64 12 -72 20 -72 73 0 56 9 66 67
76 28 4 44 13 48 24 6 19 -3 52 -14 50 -3 -1 -95 -23 -205 -49z m54 -100 c0
-37 -2 -40 -27 -40 -34 1 -152 25 -160 34 -4 3 -3 9 0 12 9 9 115 32 155 33
31 1 32 0 32 -39z"/>
<path d="M4790 2998 c-58 -40 -70 -77 -70 -210 l0 -118 285 0 285 0 0 45 0 45
-103 0 c-67 0 -109 4 -119 13 -11 8 -17 35 -21 84 -5 81 -21 114 -70 143 -47
29 -143 27 -187 -2z m150 -83 c32 -17 40 -35 43 -95 2 -51 -10 -60 -88 -60
-99 0 -105 4 -105 64 0 28 6 58 13 67 31 40 87 50 137 24z"/>
<path d="M8180 2875 c0 -110 -4 -115 -92 -115 -97 0 -97 0 -100 99 l-3 86 -35
0 -35 0 -3 -86 c-3 -97 -5 -99 -85 -99 -71 0 -77 9 -77 110 l0 90 -35 0 -35 0
0 -140 0 -140 285 0 285 0 0 139 c0 148 -1 151 -51 151 -17 0 -19 -8 -19 -95z"/>
<path d="M5543 2860 c-32 -13 -55 -65 -61 -136 -7 -95 5 -152 39 -187 26 -25
35 -29 67 -24 40 7 72 37 72 68 0 24 -17 25 -25 0 -10 -33 -42 -54 -70 -47
-38 10 -55 59 -54 153 1 98 8 121 41 146 26 19 28 19 54 3 14 -10 29 -27 31
-37 7 -27 23 -23 23 5 0 29 -43 66 -74 65 -11 0 -31 -4 -43 -9z"/>
<path d="M5789 2855 c-39 -21 -54 -68 -54 -170 1 -72 5 -98 21 -125 40 -70
128 -62 160 15 18 45 18 185 0 229 -25 60 -74 80 -127 51z m66 -11 c31 -12 45
-59 45 -154 0 -131 -35 -185 -95 -146 -59 39 -61 250 -2 291 24 17 29 18 52 9z"/>
<path d="M6014 2847 c-2 -7 -3 -82 -2 -167 2 -112 6 -154 16 -158 9 -3 12 30
12 142 0 83 4 146 9 146 9 0 13 -14 49 -195 26 -132 41 -127 76 27 15 68 30
133 33 146 13 56 23 10 25 -120 2 -102 6 -143 16 -146 9 -3 12 35 12 168 l0
171 -27 -3 c-25 -3 -28 -9 -54 -122 -33 -142 -37 -152 -49 -140 -5 5 -20 62
-35 128 -14 65 -28 122 -31 127 -8 14 -44 11 -50 -4z"/>
<path d="M6350 2690 c0 -142 2 -170 15 -170 11 0 15 17 17 72 l3 73 49 7 c68
9 91 35 91 99 0 70 -24 89 -111 89 l-64 0 0 -170z m132 133 c23 -20 24 -85 2
-107 -18 -18 -54 -29 -81 -24 -15 3 -19 14 -21 62 -2 32 -1 65 2 72 8 20 75
18 98 -3z"/>
<path d="M6602 2709 l3 -151 28 -24 c37 -32 87 -32 124 0 l28 24 3 151 c3 133
2 151 -12 151 -14 0 -16 -19 -16 -145 0 -132 -2 -147 -20 -165 -27 -27 -62
-25 -88 3 -20 22 -22 33 -22 165 0 122 -2 142 -16 142 -13 0 -15 -19 -12 -151z"/>
<path d="M6850 2851 c0 -6 17 -11 38 -13 l37 -3 3 -158 c2 -120 6 -157 15
-154 9 3 13 48 15 160 l3 157 34 0 c19 0 35 5 35 10 0 6 -37 10 -90 10 -49 0
-90 -4 -90 -9z"/>
<path d="M7100 2690 l0 -170 75 0 c43 0 75 4 75 10 0 6 -26 10 -59 10 -44 0
-60 4 -65 16 -10 27 -6 110 6 122 7 7 34 12 60 12 26 0 48 5 48 10 0 6 -22 10
-48 10 -58 0 -72 12 -72 61 0 64 6 69 71 69 33 0 59 4 59 10 0 6 -32 10 -75
10 l-75 0 0 -170z"/>
<path d="M7330 2690 c0 -107 4 -170 10 -170 6 0 10 28 10 64 0 88 4 96 51 96
51 0 69 -26 69 -102 0 -45 3 -58 15 -58 23 0 20 96 -4 140 -18 35 -18 36 0 59
25 31 24 82 -2 115 -18 23 -27 26 -85 26 l-64 0 0 -170z m124 134 c25 -24 21
-90 -6 -108 -27 -19 -69 -21 -86 -4 -13 13 -17 110 -5 121 13 13 82 7 97 -9z"/>
<path d="M3605 2836 c-69 -19 -105 -62 -105 -122 0 -101 47 -136 190 -142 113
-5 172 9 212 48 23 24 28 37 28 79 0 67 -16 99 -63 123 -52 26 -192 34 -262
14z m235 -89 c35 -18 38 -52 5 -73 -39 -25 -221 -26 -259 0 -34 21 -32 55 4
73 15 8 64 13 125 13 61 0 110 -5 125 -13z"/>
<path d="M4194 2750 c-38 -15 -64 -59 -64 -107 0 -101 66 -147 215 -148 116 0
156 9 194 44 26 24 31 37 31 73 0 24 -7 54 -16 66 -15 21 -15 25 1 42 30 33
10 40 -111 40 l-114 0 0 -60 c0 -57 1 -60 24 -60 19 0 25 6 28 28 2 21 9 28
32 30 63 8 106 -20 106 -68 0 -45 -36 -63 -139 -68 -136 -7 -201 19 -201 79 0
23 7 34 30 47 22 12 30 24 30 45 0 28 -10 32 -46 17z"/>
<path d="M7680 2460 l0 -140 285 0 285 0 0 40 0 40 -120 0 c-141 0 -140 -1
-140 115 l0 76 -32 -3 -33 -3 -3 -85 c-2 -52 -8 -87 -15 -92 -19 -12 -132 -9
-145 4 -8 8 -12 45 -12 100 l0 88 -35 0 -35 0 0 -140z"/>
<path d="M4720 2496 c0 -31 5 -46 16 -50 9 -3 130 -6 269 -6 139 0 260 3 269
6 11 4 16 19 16 50 l0 44 -285 0 -285 0 0 -44z"/>
<path d="M3510 2430 c0 -33 1 -60 3 -60 1 0 53 -9 116 -20 164 -28 164 -35 -3
-57 l-116 -16 0 -64 0 -63 208 2 207 3 0 30 0 30 -162 3 c-90 1 -163 6 -163
11 0 9 61 21 230 43 93 13 95 14 98 40 4 34 -10 41 -128 57 -127 18 -201 33
-195 40 4 3 77 8 163 11 l157 5 3 33 3 32 -210 0 -211 0 0 -60z"/>
<path d="M9115 2448 c-3 -7 -4 -150 -3 -318 l3 -305 53 -3 52 -3 -2 318 -3
318 -48 3 c-32 2 -49 -1 -52 -10z"/>
<path d="M9380 2140 l0 -320 45 0 45 0 0 231 c0 161 3 230 11 227 6 -2 50
-105 98 -228 l87 -225 62 -3 62 -3 -2 318 -3 318 -42 3 -43 3 0 -221 c0 -170
-3 -221 -12 -218 -7 3 -51 101 -98 219 l-86 214 -62 3 -62 3 0 -321z"/>
<path d="M9890 2415 l0 -45 69 0 c54 0 70 -4 75 -16 3 -9 6 -132 6 -275 l0
-259 50 0 50 0 0 259 c0 143 3 266 6 275 5 12 21 16 74 16 61 0 69 2 75 21 4
11 4 31 1 45 l-6 24 -200 0 -200 0 0 -45z"/>
<path d="M10395 2438 c-3 -13 -4 -156 -3 -318 l3 -295 171 -3 171 -2 7 31 c3
17 6 35 6 40 0 5 -51 9 -112 9 -62 0 -119 4 -126 8 -9 6 -12 34 -10 103 l3 94
110 5 110 5 3 37 c4 45 -1 47 -133 51 l-90 2 0 80 0 80 115 5 115 5 0 40 0 40
-167 3 c-167 2 -168 2 -173 -20z"/>
<path d="M10868 2454 c-5 -4 -8 -149 -8 -321 l0 -314 53 3 52 3 5 135 5 135
51 3 c43 2 57 -1 80 -21 27 -24 29 -30 35 -138 4 -63 7 -115 8 -116 1 -2 24
-3 52 -3 l52 0 -5 113 c-5 114 -21 171 -54 184 -22 8 -17 26 16 58 77 73 59
209 -33 257 -35 18 -63 23 -172 26 -71 2 -133 1 -137 -4z m253 -103 c23 -23
29 -38 29 -71 0 -33 -6 -48 -29 -71 -26 -26 -36 -29 -90 -29 l-61 0 0 93 c0
52 3 97 7 100 3 4 31 7 60 7 47 0 59 -4 84 -29z"/>
<path d="M11385 2447 c-3 -7 -4 -149 -3 -317 l3 -305 45 0 45 0 3 228 c1 125
6 227 11 227 4 0 45 -96 91 -212 45 -117 86 -221 92 -231 7 -15 20 -17 66 -15
l57 3 0 315 0 315 -45 0 -45 0 -2 -205 c-1 -113 -2 -211 -2 -218 -2 -33 -24
11 -96 190 -42 106 -83 203 -91 216 -12 18 -23 22 -70 22 -35 0 -56 -5 -59
-13z"/>
<path d="M11957 2454 c-4 -4 -7 -148 -7 -321 l0 -313 173 2 172 3 3 38 3 37
-105 0 c-57 0 -111 3 -120 6 -13 5 -16 24 -16 105 l0 99 111 0 110 0 -3 43 -3
42 -107 3 -108 3 0 84 0 85 116 0 115 0 -3 43 -3 42 -161 3 c-88 1 -163 -1
-167 -4z"/>
<path d="M12384 2446 c-3 -8 -4 -27 -2 -43 3 -27 5 -28 73 -33 l70 -5 5 -270
5 -270 50 0 50 0 5 270 5 270 78 3 77 3 0 44 0 45 -205 0 c-168 0 -207 -3
-211 -14z"/>
<path d="M8700 2433 c-30 -11 -63 -49 -91 -106 -40 -78 -61 -97 -107 -97 -46
0 -62 14 -62 55 0 32 19 56 53 68 12 4 17 17 17 42 0 40 -13 44 -65 19 -47
-22 -68 -72 -63 -142 4 -48 10 -60 43 -90 35 -32 40 -34 96 -30 69 5 92 23
134 101 44 83 71 107 121 107 33 0 46 -5 58 -22 31 -44 16 -97 -34 -118 -25
-10 -30 -18 -30 -46 0 -29 3 -34 24 -34 36 0 90 42 103 80 27 79 1 175 -56
204 -29 15 -110 20 -141 9z"/>
<path d="M4175 2398 c-29 -25 -44 -78 -45 -150 0 -83 -13 -78 220 -78 201 0
209 1 215 20 12 39 -11 50 -101 50 -92 0 -101 7 -86 65 10 36 51 54 129 54 43
1 53 5 58 21 12 36 -3 43 -86 38 -54 -3 -84 -10 -97 -21 -24 -22 -38 -21 -64
3 -31 29 -108 28 -143 -2z m130 -58 c10 -11 18 -36 19 -57 l1 -38 -70 0 -70 0
-3 37 c-2 27 3 43 17 57 27 27 82 28 106 1z"/>
<path d="M4727 2313 c-4 -3 -7 -26 -7 -49 l0 -43 113 -3 112 -3 0 -80 0 -80
-112 -3 -113 -3 0 -44 0 -45 285 0 285 0 0 45 0 44 -127 3 -128 3 0 80 0 80
128 3 128 3 -3 47 -3 47 -276 3 c-151 1 -278 -1 -282 -5z"/>
<path d="M5541 2276 c-39 -21 -50 -54 -51 -143 l0 -83 211 0 210 0 -3 28 c-3
27 -3 27 -90 30 -95 3 -106 11 -92 66 8 34 32 46 91 46 75 0 93 8 93 40 l0 27
-77 -4 c-54 -3 -86 -10 -104 -23 -26 -19 -27 -19 -60 6 -37 27 -90 31 -128 10z
m115 -71 c19 -19 24 -34 22 -58 l-3 -32 -67 -3 -68 -3 0 45 c0 35 5 48 22 60
32 23 65 20 94 -9z"/>
<path d="M7687 2234 c-4 -4 -7 -67 -7 -141 l0 -133 285 0 285 0 0 40 0 40
-120 0 c-141 0 -140 -1 -140 109 l0 71 -35 0 -34 0 -3 -87 -3 -88 -80 0 -80 0
-5 95 c-5 93 -6 95 -30 98 -14 2 -29 0 -33 -4z"/>
<path d="M4350 2061 c-107 -26 -201 -50 -208 -55 -16 -9 -16 -71 1 -84 23 -18
408 -105 419 -94 21 21 -2 52 -43 58 -53 9 -69 27 -69 78 0 51 10 61 67 71 28
4 44 13 48 24 6 19 -3 51 -14 50 -3 0 -94 -22 -201 -48z m50 -102 l0 -42 -42
6 c-89 12 -149 29 -145 40 4 13 92 34 150 36 37 1 37 1 37 -40z"/>
<path d="M8840 1988 c0 -52 -5 -89 -12 -96 -7 -7 -40 -12 -78 -12 -38 0 -71 5
-78 12 -7 7 -12 42 -12 85 l0 73 -30 0 -29 0 -3 -82 -3 -83 -70 0 -70 0 -3 88
-3 87 -30 0 -30 0 3 -127 3 -128 230 -3 c127 -1 240 0 253 3 22 5 23 8 20 133
l-3 127 -27 3 -28 3 0 -83z"/>
<path d="M5865 1968 c-3 -7 -6 -42 -7 -78 l-3 -65 -65 0 -65 0 -5 65 c-4 58
-7 65 -27 68 -22 3 -23 0 -23 -55 0 -78 -6 -85 -71 -81 l-54 3 -3 73 c-3 69
-4 72 -27 72 -25 0 -25 0 -25 -105 l0 -105 210 0 210 0 0 104 c0 85 -3 105
-16 110 -22 8 -24 8 -29 -6z"/>
<path d="M1755 1946 c-69 -31 -89 -89 -83 -239 4 -122 19 -153 83 -175 70 -23
138 11 151 76 6 30 4 32 -20 32 -19 0 -29 -7 -36 -24 -13 -34 -46 -51 -76 -38
-30 14 -44 66 -44 162 0 97 14 148 45 162 31 14 52 5 73 -32 11 -19 25 -30 40
-30 32 0 29 42 -5 79 -33 36 -85 47 -128 27z"/>
<path d="M2660 1947 c-25 -8 -42 -25 -59 -57 -22 -39 -25 -57 -25 -145 -1 -87
2 -106 24 -150 21 -42 32 -52 66 -63 50 -16 108 0 136 38 40 55 48 232 15 313
-26 61 -91 88 -157 64z m79 -54 c39 -33 52 -198 21 -278 -20 -52 -79 -55 -104
-7 -34 68 -25 253 15 285 12 9 27 17 34 17 7 0 22 -8 34 -17z"/>
<path d="M3505 1953 c-70 -18 -100 -85 -99 -223 1 -145 35 -201 123 -204 51
-1 86 19 106 59 21 45 19 55 -10 55 -17 0 -29 -9 -40 -29 -18 -35 -46 -46 -75
-31 -32 17 -42 56 -42 160 0 104 10 143 42 160 29 15 57 4 75 -31 11 -21 23
-29 42 -29 23 0 25 3 19 32 -8 40 -23 58 -63 75 -33 13 -44 14 -78 6z"/>
<path d="M3784 1946 c-43 -19 -64 -53 -64 -101 0 -51 17 -76 77 -110 73 -42
93 -64 93 -101 0 -41 -22 -64 -61 -64 -23 0 -34 7 -47 30 -27 47 -72 53 -72 9
0 -30 50 -75 91 -83 84 -15 153 38 152 117 -1 59 -22 88 -86 122 -28 15 -60
35 -69 43 -22 18 -24 75 -4 91 25 21 69 9 84 -21 17 -36 62 -40 62 -5 0 35
-27 65 -68 77 -46 12 -50 12 -88 -4z"/>
<path d="M850 1740 l0 -211 103 3 c97 3 102 4 105 26 3 21 0 22 -67 22 -80 0
-91 9 -91 79 0 55 19 71 86 71 52 0 55 2 52 23 -3 20 -10 22 -63 25 -64 3 -75
11 -75 55 0 56 14 67 85 67 63 0 65 1 65 25 l0 25 -100 0 -100 0 0 -210z"/>
<path d="M1130 1741 l0 -211 100 0 c100 0 100 0 100 25 0 23 -3 24 -67 27
l-68 3 -5 180 -5 180 -27 3 -28 3 0 -210z"/>
<path d="M1400 1740 l0 -210 99 0 c81 0 100 3 105 16 12 30 5 34 -62 34 -40 0
-73 5 -80 12 -18 18 -15 103 4 122 10 11 34 16 70 16 52 0 55 2 52 23 -3 20
-10 22 -63 25 -65 3 -75 11 -75 59 0 58 6 63 81 63 67 0 69 1 69 25 l0 25
-100 0 -100 0 0 -210z"/>
<path d="M1960 1926 c0 -22 5 -25 43 -28 l42 -3 5 -180 5 -180 28 -3 27 -3 0
173 c0 95 4 178 8 185 4 6 25 13 47 15 32 2 40 7 40 23 0 19 -8 20 -122 23
l-123 3 0 -25z"/>
<path d="M2270 1740 l0 -211 28 3 c27 3 27 4 32 93 l5 90 39 -1 c51 -2 66 -23
66 -95 0 -74 6 -89 37 -89 25 0 25 0 22 84 -3 64 -8 89 -22 104 -18 20 -18 21
5 52 33 45 31 112 -6 148 -24 25 -35 27 -116 30 l-90 4 0 -212z m157 148 c17
-14 24 -54 13 -82 -11 -30 -53 -50 -87 -41 -21 5 -23 11 -23 69 0 53 3 65 18
69 21 5 63 -3 79 -15z"/>
<path d="M2920 1740 l0 -211 23 3 c22 3 22 6 25 151 2 102 6 147 13 145 6 -2
35 -69 64 -148 l52 -145 34 0 34 0 0 205 c0 205 0 205 -22 208 -23 3 -23 3
-23 -132 0 -125 -8 -164 -26 -134 -5 7 -29 69 -55 138 l-47 125 -36 3 -36 3 0
-211z"/>
<path d="M3264 1937 c-2 -7 -3 -100 -2 -207 l3 -195 28 -3 27 -3 0 210 0 211
-25 0 c-14 0 -28 -6 -31 -13z"/>
<path d="M5080 1849 c-43 -18 -81 -61 -121 -141 -21 -42 -49 -84 -61 -92 -29
-20 -67 -20 -96 0 -19 13 -22 24 -20 57 3 36 8 45 41 66 32 21 37 29 37 64 l0
40 -36 -6 c-119 -20 -157 -210 -58 -296 30 -27 42 -31 92 -31 86 0 107 18 173
143 43 81 74 107 124 107 40 0 62 -16 74 -53 15 -46 1 -82 -43 -108 -39 -23
-51 -48 -42 -85 8 -29 18 -30 72 -3 62 29 88 86 82 179 -4 74 -20 105 -70 143
-31 23 -111 32 -148 16z"/>
<path d="M7855 1849 c-81 -12 -143 -46 -166 -89 -37 -68 -17 -169 41 -210 94
-67 377 -66 472 2 51 36 72 119 47 185 -17 45 -59 82 -110 97 -63 19 -210 27
-284 15z m282 -105 c78 -39 63 -115 -28 -142 -64 -19 -283 -12 -326 11 -80 43
-44 130 61 148 75 14 250 3 293 -17z"/>
<path d="M4361 1734 l-31 -26 -26 21 c-40 31 -96 28 -135 -7 -31 -28 -32 -31
-33 -118 l-1 -89 215 0 215 0 0 70 c-1 89 -9 121 -42 151 -38 35 -119 34 -162
-2z m140 -55 c15 -15 19 -30 17 -62 l-3 -42 -75 0 -75 0 -3 41 c-3 35 1 45 24
63 35 27 88 27 115 0z m-207 -8 c12 -13 16 -32 14 -58 l-3 -38 -60 0 -60 0 -3
37 c-6 66 70 106 112 59z"/>
<path d="M8444 1691 c-45 -27 -55 -62 -52 -177 l3 -99 230 -3 c127 -1 240 0
253 3 17 4 22 12 22 40 l0 35 -103 0 c-67 0 -107 4 -115 12 -24 24 -6 99 27
114 9 4 54 10 101 13 l85 6 3 39 3 39 -47 -7 c-26 -3 -71 -6 -100 -6 -41 0
-59 -5 -82 -25 -26 -22 -31 -23 -43 -9 -37 45 -131 58 -185 25z m121 -65 c37
-16 49 -41 43 -97 l-3 -34 -72 -3 c-64 -3 -73 -1 -83 18 -23 43 7 111 55 123
11 2 21 5 23 6 1 0 18 -5 37 -13z"/>
<path d="M5760 1677 c-32 -11 -65 -47 -115 -128 -24 -39 -54 -51 -86 -35 -36
18 -34 76 4 94 35 17 39 62 4 62 -60 0 -98 -72 -78 -148 14 -52 49 -77 107
-77 51 0 84 27 120 97 26 52 57 78 92 78 41 0 62 -18 62 -53 0 -38 -7 -50 -37
-66 -16 -8 -23 -21 -23 -41 0 -35 0 -35 46 -15 39 16 64 62 64 117 -1 85 -79
142 -160 115z"/>
<path d="M9186 1602 c-5 -8 -126 -474 -126 -485 0 -4 11 -7 24 -7 20 0 25 7
36 60 19 88 26 95 104 95 35 0 68 -3 71 -7 4 -4 15 -37 24 -75 16 -62 20 -68
45 -71 21 -3 27 0 24 10 -3 7 -31 114 -63 238 -32 124 -63 231 -68 238 -10 13
-63 17 -71 4z m53 -89 c26 -99 42 -185 37 -198 -3 -10 -20 -15 -48 -15 -71 0
-75 6 -54 97 30 132 36 153 46 153 5 0 14 -17 19 -37z"/>
<path d="M9488 1604 c-5 -4 -8 -117 -8 -252 l0 -244 94 4 c107 3 136 17 168
80 29 55 41 160 28 243 -20 129 -62 166 -194 173 -45 2 -84 1 -88 -4z m187
-64 c33 -31 45 -78 45 -180 0 -106 -12 -148 -50 -185 -26 -24 -39 -29 -83 -30
l-52 0 -3 200 c-1 110 0 206 3 213 9 24 110 11 140 -18z"/>
<path d="M9850 1596 c0 -24 121 -470 129 -479 5 -5 21 -7 37 -5 29 3 29 4 96
243 36 132 64 243 62 247 -3 5 -14 8 -24 8 -14 0 -22 -11 -29 -37 -5 -21 -26
-103 -46 -183 -20 -80 -41 -162 -46 -183 -6 -21 -14 -35 -19 -32 -11 7 -13 15
-65 240 -21 88 -42 168 -47 178 -11 21 -48 23 -48 3z"/>
<path d="M10270 1360 l0 -251 122 3 c86 2 123 7 126 16 3 9 -19 12 -85 12 -48
0 -94 4 -101 8 -9 6 -12 34 -10 103 l3 94 88 3 c78 2 87 5 87 22 0 17 -9 20
-87 22 l-88 3 0 85 0 85 93 3 c84 2 92 4 92 22 0 19 -7 20 -120 20 l-120 0 0
-250z"/>
<path d="M10620 1360 l0 -251 23 3 c21 3 22 7 25 116 l3 112 53 0 c88 0 115
-40 116 -172 0 -56 1 -58 26 -58 26 0 27 1 20 53 -3 28 -6 71 -6 94 0 30 -7
50 -26 72 l-26 31 31 35 c25 28 31 45 31 80 0 100 -36 128 -172 133 l-98 4 0
-252z m195 185 c29 -28 33 -80 10 -124 -18 -35 -32 -41 -101 -41 l-54 0 0 95
0 95 60 0 c51 0 65 -4 85 -25z"/>
<path d="M10967 1603 c-21 -20 -4 -32 51 -35 l57 -3 3 -227 2 -228 25 0 25 0
2 228 3 227 58 3 c49 3 57 6 57 22 0 19 -8 20 -138 20 -76 0 -142 -3 -145 -7z"/>
<path d="M11347 1604 c-4 -4 -7 -117 -7 -251 l0 -243 25 0 25 0 -2 247 c-3
214 -5 248 -18 251 -9 1 -19 0 -23 -4z"/>
<path d="M11544 1576 c-30 -30 -34 -41 -34 -84 0 -65 23 -93 110 -137 82 -41
110 -74 110 -126 0 -55 -34 -91 -87 -93 -45 -1 -75 19 -96 63 -17 35 -53 36
-49 1 8 -61 64 -100 142 -100 86 0 140 52 140 136 0 45 -5 59 -30 88 -17 18
-59 48 -95 66 -36 18 -72 42 -80 54 -38 54 1 136 65 136 33 0 80 -38 80 -65 0
-9 9 -15 25 -15 37 0 32 35 -9 76 -31 31 -39 34 -96 34 -57 0 -65 -3 -96 -34z"/>
<path d="M11890 1361 l0 -251 25 0 25 0 -2 248 -3 247 -22 3 -23 3 0 -250z"/>
<path d="M12077 1603 c-4 -3 -7 -116 -7 -250 l0 -243 25 0 25 0 0 207 c0 174
2 205 13 193 8 -8 49 -102 93 -207 l79 -193 33 0 32 0 -2 247 c-3 226 -5 248
-20 251 -16 3 -18 -13 -20 -195 -2 -124 -7 -198 -13 -197 -5 0 -45 83 -88 184
-42 101 -82 189 -88 197 -12 14 -51 18 -62 6z"/>
<path d="M12568 1593 c-64 -40 -100 -182 -79 -319 18 -120 49 -163 125 -171
35 -4 54 0 81 16 43 25 55 26 55 6 0 -8 9 -15 20 -15 19 0 20 7 20 130 l0 130
-70 0 c-56 0 -70 -3 -70 -15 0 -10 10 -15 33 -15 57 0 69 -33 46 -126 -13 -52
-40 -74 -89 -74 -73 0 -100 59 -100 215 1 141 28 206 90 220 39 9 85 -17 98
-55 8 -20 18 -30 31 -30 34 0 27 46 -13 86 -31 31 -39 34 -92 34 -37 0 -69 -7
-86 -17z"/>
<path d="M5490 1360 c0 -16 3 -30 7 -30 15 0 269 -41 282 -46 31 -10 -10 -25
-138 -49 -73 -14 -137 -27 -142 -30 -5 -4 -9 -17 -9 -30 0 -20 7 -25 53 -34
28 -6 94 -19 145 -30 90 -18 111 -26 100 -36 -3 -4 -274 -45 -296 -45 -2 0 -2
-15 0 -32 2 -22 8 -32 18 -31 8 1 102 19 208 39 l192 36 0 33 0 32 -142 29
c-79 16 -142 33 -141 39 1 5 42 18 90 27 210 42 193 36 193 68 0 16 -3 31 -8
33 -6 4 -395 87 -407 87 -3 0 -5 -13 -5 -30z"/>
<path d="M3176 1309 c-51 -40 -61 -73 -61 -199 0 -162 29 -210 127 -210 38 0
54 6 77 28 17 15 33 39 37 55 6 25 4 27 -24 27 -21 0 -31 -6 -35 -19 -2 -10
-16 -27 -31 -36 -24 -16 -28 -16 -51 -1 -14 10 -27 31 -32 53 -12 59 -9 195 6
231 22 53 82 56 106 4 7 -15 19 -22 38 -22 27 0 29 2 23 28 -4 15 -20 39 -37
55 -38 35 -103 38 -143 6z"/>
<path d="M3486 1309 c-40 -32 -58 -75 -63 -158 -7 -100 10 -181 47 -221 23
-25 36 -30 75 -30 102 0 140 58 140 215 -1 106 -15 155 -56 190 -39 32 -104
34 -143 4z m116 -60 c17 -22 20 -43 20 -131 0 -76 -5 -114 -16 -136 -27 -53
-83 -48 -107 10 -15 36 -19 185 -6 230 17 62 73 76 109 27z"/>
<path d="M4474 1311 c-45 -28 -64 -83 -64 -193 0 -159 35 -218 132 -218 95 0
133 73 126 240 -3 64 -10 106 -21 127 -32 60 -113 81 -173 44z m113 -57 c21
-33 30 -181 14 -242 -7 -25 -22 -48 -36 -58 -23 -15 -27 -15 -50 0 -34 23 -48
78 -44 182 5 107 22 144 69 144 21 0 35 -8 47 -26z"/>
<path d="M5144 1321 c-34 -15 -54 -52 -54 -99 0 -61 11 -76 89 -121 71 -42 81
-54 81 -100 0 -70 -95 -82 -120 -15 -7 17 -17 24 -35 24 -36 0 -34 -43 4 -81
25 -24 37 -29 81 -29 56 0 104 20 120 49 5 11 10 42 10 70 0 61 -20 87 -105
134 -54 30 -60 36 -63 69 -3 38 17 68 45 68 8 0 28 -13 43 -30 54 -58 98 -24
47 36 -18 21 -34 27 -73 30 -27 2 -59 0 -70 -5z"/>
<path d="M3760 1168 c0 -84 5 -170 10 -190 16 -55 51 -78 120 -78 69 0 104 23
120 78 5 20 10 106 10 190 l0 152 -30 0 -30 0 0 -149 c0 -84 -5 -162 -11 -180
-22 -61 -97 -60 -119 2 -5 16 -10 97 -10 178 l0 149 -30 0 -30 0 0 -152z"/>
<path d="M4106 1304 c-3 -9 -6 -98 -6 -199 0 -149 3 -185 15 -195 30 -25 45
-4 45 62 0 100 3 104 68 111 47 5 62 11 85 37 23 25 27 39 27 86 0 48 -4 59
-29 85 -28 27 -34 29 -114 29 -68 0 -86 -3 -91 -16z m152 -40 c17 -11 22 -25
22 -56 0 -54 -22 -78 -70 -78 -31 0 -39 4 -44 23 -9 34 -7 86 4 108 13 23 57
25 88 3z"/>
<path d="M4752 1113 c3 -200 4 -208 23 -208 19 0 20 8 25 144 3 92 9 146 16
148 6 2 28 -43 49 -104 66 -186 71 -195 102 -191 l28 3 3 208 2 207 -25 0 -25
0 0 -140 c0 -77 -4 -140 -9 -140 -5 0 -32 63 -61 140 l-53 140 -38 0 -39 0 2
-207z"/>
<path d="M8517 1310 c-93 -24 -137 -72 -137 -150 0 -108 68 -158 227 -167 183
-10 285 37 299 138 5 35 1 57 -14 91 -30 69 -84 91 -227 95 -60 1 -127 -2
-148 -7z m257 -83 c52 -16 81 -54 67 -90 -18 -48 -62 -62 -196 -62 -126 0
-177 12 -195 46 -24 45 -4 83 55 104 49 17 214 18 269 2z"/>
<path d="M8390 795 l0 -155 30 0 c29 0 30 1 30 48 0 26 5 53 12 60 9 9 73 12
225 12 l213 0 0 35 0 35 -206 0 c-122 0 -213 4 -225 10 -15 8 -19 22 -19 60 0
49 -1 50 -30 50 l-30 0 0 -155z"/>
<path d="M5575 900 c-17 -5 -44 -23 -60 -40 -24 -25 -29 -39 -29 -78 0 -97 65
-138 219 -136 109 2 162 19 193 64 39 59 20 144 -40 176 -38 21 -231 30 -283
14z m262 -68 c47 -26 40 -86 -13 -108 -45 -19 -204 -19 -249 0 -46 19 -56 58
-25 91 12 13 32 26 44 29 39 9 221 0 243 -12z"/>
<path d="M8705 586 c-37 -16 -78 -63 -107 -120 -31 -62 -57 -86 -94 -86 -44 0
-66 24 -62 69 2 30 9 38 36 50 27 12 32 20 32 48 0 38 -21 43 -70 18 -39 -20
-60 -63 -60 -122 0 -91 62 -150 148 -140 61 7 90 32 136 117 41 77 84 108 129
94 78 -23 75 -119 -5 -147 -13 -5 -18 -17 -18 -42 0 -30 3 -35 23 -35 118 0
159 216 54 285 -34 22 -106 28 -142 11z"/>
<path d="M5564 573 c-12 -2 -32 -15 -45 -29 -22 -23 -24 -34 -24 -117 l0 -92
208 -3 207 -2 0 30 0 30 -84 0 c-95 0 -112 10 -101 59 9 44 30 55 109 61 69 5
71 6 74 33 l3 27 -68 0 c-48 0 -80 -6 -107 -19 -38 -20 -38 -20 -65 -1 -28 21
-73 31 -107 23z m103 -94 c32 -62 9 -91 -69 -87 l-53 3 -3 43 c-2 24 2 50 8
57 26 31 98 22 117 -16z"/>
<path d="M5750 253 c-8 -3 -25 -15 -38 -26 -22 -20 -24 -20 -51 -4 -16 9 -49
17 -74 17 -38 0 -49 -5 -71 -31 -24 -28 -26 -38 -26 -120 l0 -89 210 0 210 0
0 85 c0 59 -5 96 -16 116 -23 44 -94 70 -144 52z m103 -85 c12 -14 17 -34 15
-57 l-3 -36 -75 0 -75 0 -3 32 c-6 61 33 97 93 88 17 -3 38 -15 48 -27z m-215
6 c17 -12 22 -25 22 -60 l0 -44 -59 0 c-65 0 -75 9 -64 60 6 32 36 60 63 60 9
0 26 -7 38 -16z"/>
</g>
</svg>
